<?xml version="1.0" encoding="UTF-8"?>
<svg width="109px" height="119px" viewBox="0 0 109 119" version="1.1" xmlns="http://www.w3.org/2000/svg" xmlns:xlink="http://www.w3.org/1999/xlink">
    <!-- Generator: Sketch 59.1 (86144) - https://sketch.com -->
    <title>brain</title>
    <desc>Created with Sketch.</desc>
    <g id="Page-1" stroke="none" stroke-width="1" fill="none" fill-rule="evenodd">
        <g id="Home-Copy-9" transform="translate(-1109.000000, -3012.000000)" fill="#236F8A" fill-rule="nonzero">
            <g id="brain" transform="translate(1109.000000, 3012.000000)">
                <path d="M66.75,20 C65.646,20 64.75,20.896 64.75,22 C64.75,23.104 65.646,24 66.75,24 C67.854,24 68.75,23.104 68.75,22 C68.75,20.896 67.854,20 66.75,20 Z" id="Path"></path>
                <path d="M42.75,20 C41.646,20 40.75,20.896 40.75,22 C40.75,23.104 41.646,24 42.75,24 C43.854,24 44.75,23.104 44.75,22 C44.75,20.896 43.854,20 42.75,20 Z" id="Path"></path>
                <path d="M105.726704,69.4667148 C107.741843,66.4726563 108.75,62.7369395 108.75,59.5 C108.75,54.6200703 106.560183,50.0862168 102.802487,47.0117402 C103.634087,45.0445215 104.054348,42.9985117 104.054348,40.90625 C104.054348,34.4321387 100.237722,28.4012559 94.5632609,25.585 C95.4242087,18.5161211 90.771287,12.0366641 83.8759565,10.3839121 C81.1771304,4.20776563 75.1702174,0 68.8369565,0 C62.9415652,0 57.6540261,3.40405078 54.75,8.37090625 C51.8457391,3.40405078 46.5582,0 40.6630435,0 C34.329313,0 28.3224,4.20776563 25.6240435,10.3841445 C18.6873913,12.0473555 14.0781391,18.5591191 14.9367391,25.585 C9.26251304,28.4010234 5.44565217,34.4321387 5.44565217,40.90625 C5.44565217,42.9985117 5.86591304,45.0445215 6.69751304,47.0117402 C2.93981739,50.0864492 0.75,54.6200703 0.75,59.5 C0.75,62.7539063 1.7666087,66.4847422 3.77329565,69.4664824 C1.8123913,72.2067363 0.75,75.4543672 0.75,78.7910156 C0.75,83.1177813 2.52213913,87.2395508 5.65672174,90.300082 C4.04517391,99.9437305 11.8141304,109.703125 21.8804348,109.703125 C21.9532174,109.703125 22.0248261,109.701963 22.0950261,109.699871 C25.4324609,115.39932 31.6274348,119 38.3152174,119 C45.2854435,119 51.5137565,114.858242 54.75,108.891043 C57.9862435,114.858242 64.2145565,119 71.1847826,119 C77.8725652,119 84.0675391,115.39932 87.4049739,109.699871 C87.4754087,109.701963 87.5467826,109.703125 87.6195652,109.703125 C96.5281565,109.703125 104.054348,101.933262 104.054348,92.7363281 C104.054348,91.9532988 103.984852,91.147957 103.843278,90.300082 C106.977861,87.2395508 108.75,83.1180137 108.75,78.7910156 C108.75,75.4543672 107.687609,72.2067363 105.726704,69.4667148 Z M52.4021739,35.1842559 C51.0197739,34.3905352 49.4164435,33.9335938 47.7065217,33.9335938 C46.4098174,33.9335938 45.3586957,34.9741465 45.3586957,36.2578125 C45.3586957,37.5414785 46.4098174,38.5820313 47.7065217,38.5820313 C50.2957043,38.5820313 52.4021739,40.6673203 52.4021739,43.2304688 L52.4021739,87.4299043 C48.9576783,83.5621719 43.9211217,81.1152344 38.3152174,81.1152344 C37.018513,81.1152344 35.9673913,82.1557871 35.9673913,83.4394531 C35.9673913,84.7231191 37.018513,85.7636719 38.3152174,85.7636719 C46.0827652,85.7636719 52.4021739,92.0195391 52.4021739,99.7089844 C52.4021739,107.645959 45.9510522,114.351563 38.3152174,114.351563 C32.8795304,114.351563 27.8756087,111.169475 25.5667565,106.244688 C25.1410957,105.33708 24.1770783,104.801813 23.1719739,104.91384 C23.0059826,104.932666 22.8409304,104.954514 22.6758783,104.976826 C15.9939652,105.881412 8.46918261,98.3911523 10.5061565,90.0118789 C10.7153478,89.1512207 10.4124783,88.2480293 9.72526957,87.6818496 C7.00554783,85.4415352 5.44565217,82.200877 5.44565217,78.7910156 C5.44565217,76.6827168 6.04786957,74.6195078 7.16848696,72.8103359 C9.98446957,75.095043 13.4871913,76.4667969 17.1847826,76.4667969 C18.481487,76.4667969 19.5326087,75.4262441 19.5326087,74.1425781 C19.5326087,72.8589121 18.481487,71.8183594 17.1847826,71.8183594 C10.8130174,71.8183594 5.44565217,66.0612695 5.44565217,59.5 C5.44565217,55.5197754 7.49506957,51.8582012 10.9282957,49.7052773 C11.9859913,49.0419453 12.3318261,47.6736777 11.714113,46.5954727 C10.6705043,44.7735176 10.1413043,42.859291 10.1413043,40.90625 C10.1413043,34.6331836 15.3069913,28.5878906 21.8804348,28.5878906 C28.1341043,28.5878906 33.6195652,34.3442832 33.6195652,40.90625 C33.6195652,42.189916 34.670687,43.2304688 35.9673913,43.2304688 C37.2640957,43.2304688 38.3152174,42.189916 38.3152174,40.90625 C38.3152174,31.7093164 30.7890261,23.9394531 21.8804348,23.9394531 C21.0943826,23.9394531 20.3125565,24.0024395 19.5384783,24.1216719 C19.5373043,24.0605449 19.5326087,24.0010449 19.5326087,23.9394531 C19.5326087,18.7524941 23.7861652,14.6425781 28.923913,14.6425781 C31.4318609,14.6425781 33.7909565,15.6096855 35.5663826,17.3654004 C36.4836783,18.272543 37.970087,18.2716133 38.8866783,17.3637734 C39.8030348,16.4554688 39.8023304,14.9840059 38.8850348,14.0768633 C36.743113,11.9588027 34.0339565,10.6079668 31.098,10.1603223 C33.1685478,7.1176875 36.6116348,4.6484375 40.6630435,4.6484375 C46.916713,4.6484375 52.4021739,10.4045977 52.4021739,16.9667969 L52.4021739,35.1842559 Z M92.3152174,76.4667969 C96.0130435,76.4667969 99.5157652,75.0948105 102.331748,72.8110332 C103.45213,74.6199727 104.054348,76.6829492 104.054348,78.7910156 C104.054348,82.200877 102.494452,85.4415352 99.7749652,87.6818496 C99.0875217,88.2480293 98.784887,89.1514531 98.9940783,90.0118789 C99.2429478,91.0352324 99.3586957,91.9010039 99.3586957,92.7360957 C99.3586957,99.9504707 92.7671739,105.781006 86.8243565,104.976826 C86.6593043,104.954514 86.4940174,104.932434 86.3280261,104.91384 C85.321513,104.801115 84.3586696,105.33708 83.9334783,106.244688 C81.6246261,111.169475 76.6202348,114.351563 71.1847826,114.351563 C63.5489478,114.351563 57.0978261,107.645959 57.0978261,99.7089844 C57.0978261,92.0195391 63.4172348,85.7636719 71.1847826,85.7636719 C72.4812522,85.7636719 73.5326087,84.7231191 73.5326087,83.4394531 C73.5326087,82.1557871 72.4812522,81.1152344 71.1847826,81.1152344 C65.5788783,81.1152344 60.5423217,83.5621719 57.0978261,87.4299043 L57.0978261,43.2304688 C57.0978261,40.6673203 59.2042957,38.5820313 61.7934783,38.5820313 C63.0899478,38.5820313 64.1413043,37.5414785 64.1413043,36.2578125 C64.1413043,34.9741465 63.0899478,33.9335938 61.7934783,33.9335938 C60.0835565,33.9335938 58.4802261,34.3905352 57.0978261,35.1842559 L57.0978261,16.9667969 C57.0978261,10.4045977 62.583287,4.6484375 68.8369565,4.6484375 C72.8883652,4.6484375 76.3312174,7.1176875 78.4017652,10.1600898 C75.4660435,10.6077344 72.7571217,11.9585703 70.6149652,14.0766309 C69.6974348,14.9837734 69.6964957,16.4552363 70.6128522,17.363541 C71.5292087,18.2718457 73.016087,18.272543 73.9331478,17.3654004 C75.7092783,15.6096855 78.0681391,14.6425781 80.576087,14.6425781 C85.7396609,14.6425781 89.9673913,18.776666 89.9673913,23.9394531 C89.9673913,24.0008125 89.9626957,24.0605449 89.9615217,24.1216719 C89.1874435,24.0024395 88.4056174,23.9394531 87.6195652,23.9394531 C78.7109739,23.9394531 71.1847826,31.7093164 71.1847826,40.90625 C71.1847826,42.189916 72.2361391,43.2304688 73.5326087,43.2304688 C74.8290783,43.2304688 75.8804348,42.189916 75.8804348,40.90625 C75.8804348,34.3442832 81.3658957,28.5878906 87.6195652,28.5878906 C94.1892522,28.5878906 99.3586957,34.6301621 99.3586957,40.90625 C99.3586957,42.859291 98.8294957,44.7735176 97.785887,46.5954727 C97.1684087,47.6736777 97.5142435,49.0419453 98.5719391,49.7052773 C102.00493,51.8582012 104.054348,55.5197754 104.054348,59.5 C104.054348,66.0847441 98.6682,71.8183594 92.3152174,71.8183594 C91.0187478,71.8183594 89.9673913,72.8589121 89.9673913,74.1425781 C89.9673913,75.4262441 91.0187478,76.4667969 92.3152174,76.4667969 Z" id="Shape"></path>
                <path d="M47.1557442,49.2123667 C46.2966095,48.2519667 44.8217071,48.1698333 43.8610722,49.0289667 C36.3785268,55.7221333 24.4166742,50.3729667 24.4166742,40.3333333 C24.4166742,39.0446333 23.3720392,38 22.0833371,38 C20.794635,38 19.75,39.0446333 19.75,40.3333333 C19.75,48.4335 25.6783096,55.1721667 33.4233554,56.4466333 C32.5250206,59.2765 29.8734163,61.3333333 26.7500113,61.3333333 C25.4613092,61.3333333 24.4166742,62.3779667 24.4166742,63.6666667 C24.4166742,64.9553667 25.4613092,66 26.7500113,66 C32.4333205,66 37.1776948,61.9143333 38.2071631,56.5262 C41.452135,56.1017667 44.50624,54.7132 46.9723439,52.5070333 C47.9327455,51.6479 48.0148789,50.1727667 47.1557442,49.2123667 Z" id="Path"></path>
                <path d="M22.125,91 C20.8132875,91 19.75,92.0248554 19.75,93.2891566 C19.75,94.5534578 20.8132875,95.5783133 22.125,95.5783133 C28.45105,95.5783133 34,101.247867 34,107.710843 C34,108.975145 35.0632875,110 36.375,110 C37.6867125,110 38.75,108.975145 38.75,107.710843 C38.75,98.6526506 31.1367,91 22.125,91 Z" id="Path"></path>
                <path d="M41.4062997,72 C33.464437,72 26.6456755,76.2977405 23.0551267,82.54675 C22.4169371,83.6578957 22.8123193,85.0692011 23.938233,85.6988889 C25.0643809,86.3285766 26.4945068,85.9386928 27.1329308,84.8275471 C29.930137,79.9583933 35.2376807,76.6249561 41.4062997,76.6249561 C42.7007254,76.6249561 43.75,75.5896597 43.75,74.3124781 C43.75,73.0352964 42.7007254,72 41.4062997,72 Z" id="Path"></path>
                <path d="M82.750012,61.3333333 C79.6266174,61.3333333 76.975022,59.2765 76.0766902,56.4466333 C83.8217102,55.1721667 89.75,48.4335 89.75,40.3333333 C89.75,39.0446333 88.7051351,38 87.4166707,38 C86.1282062,38 85.0833414,39.0446333 85.0833414,40.3333333 C85.0833414,46.7663333 79.8496837,52 73.4166948,52 C70.5429664,52 67.7810045,50.9448667 65.6390082,49.0289667 C64.6788432,48.1698333 63.203479,48.2517333 62.3443472,49.2123667 C61.484982,50.1727667 61.5673485,51.6479 62.5277469,52.5070333 C64.9938426,54.7132 68.0481707,56.1017667 71.2928984,56.5262 C72.3223633,61.9143333 77.0667218,66 82.750012,66 C84.0384765,66 85.0833414,64.9553667 85.0833414,63.6666667 C85.0833414,62.3779667 84.0384765,61.3333333 82.750012,61.3333333 Z" id="Path"></path>
                <path d="M87.375,91 C78.3633,91 70.75,98.6526506 70.75,107.710843 C70.75,108.975145 71.813525,110 73.125,110 C74.436475,110 75.5,108.975145 75.5,107.710843 C75.5,101.247867 81.04895,95.5783133 87.375,95.5783133 C88.686475,95.5783133 89.75,94.5534578 89.75,93.2891566 C89.75,92.0248554 88.686475,91 87.375,91 Z" id="Path"></path>
                <path d="M86.4450408,82.5468595 C82.8633691,76.3127218 76.0539272,72 68.0937192,72 C66.7995175,72 65.75,73.0352845 65.75,74.3124514 C65.75,75.5896183 66.7995175,76.6249027 68.0937192,76.6249027 C74.2579352,76.6249027 79.5695061,79.9573764 82.366735,84.827399 C83.0058672,85.9399193 84.4371765,86.3279487 85.5614587,85.6989619 C86.6876158,85.0692814 87.0830012,83.6579923 86.4450408,82.5468595 Z" id="Path"></path>
            </g>
        </g>
    </g>
</svg>