<?xml version="1.0" encoding="UTF-8"?>
<svg width="108px" height="119px" viewBox="0 0 108 119" version="1.1" xmlns="http://www.w3.org/2000/svg" xmlns:xlink="http://www.w3.org/1999/xlink">
    <!-- Generator: Sketch 59.1 (86144) - https://sketch.com -->
    <title>brain-green</title>
    <desc>Created with Sketch.</desc>
    <g id="Page-1" stroke="none" stroke-width="1" fill="none" fill-rule="evenodd">
        <g id="Home-Copy-20" transform="translate(-1110.000000, -3177.000000)" fill="#72BE46" fill-rule="nonzero">
            <g id="brain-green" transform="translate(1110.000000, 3177.000000)">
                <path d="M66,20 C64.896,20 64,20.896 64,22 C64,23.104 64.896,24 66,24 C67.104,24 68,23.104 68,22 C68,20.896 67.104,20 66,20 Z" id="Path"></path>
                <path d="M42,20 C40.896,20 40,20.896 40,22 C40,23.104 40.896,24 42,24 C43.104,24 44,23.104 44,22 C44,20.896 43.104,20 42,20 Z" id="Path"></path>
                <path d="M104.976704,69.4667148 C106.991843,66.4726563 108,62.7369395 108,59.5 C108,54.6200703 105.810183,50.0862168 102.052487,47.0117402 C102.884087,45.0445215 103.304348,42.9985117 103.304348,40.90625 C103.304348,34.4321387 99.4877217,28.4012559 93.8132609,25.585 C94.6742087,18.5161211 90.021287,12.0366641 83.1259565,10.3839121 C80.4271304,4.20776563 74.4202174,0 68.0869565,0 C62.1915652,0 56.9040261,3.40405078 54,8.37090625 C51.0957391,3.40405078 45.8082,0 39.9130435,0 C33.579313,0 27.5724,4.20776563 24.8740435,10.3841445 C17.9373913,12.0473555 13.3281391,18.5591191 14.1867391,25.585 C8.51251304,28.4010234 4.69565217,34.4321387 4.69565217,40.90625 C4.69565217,42.9985117 5.11591304,45.0445215 5.94751304,47.0117402 C2.18981739,50.0864492 0,54.6200703 0,59.5 C0,62.7539063 1.0166087,66.4847422 3.02329565,69.4664824 C1.0623913,72.2067363 0,75.4543672 0,78.7910156 C0,83.1177813 1.77213913,87.2395508 4.90672174,90.300082 C3.29517391,99.9437305 11.0641304,109.703125 21.1304348,109.703125 C21.2032174,109.703125 21.2748261,109.701963 21.3450261,109.699871 C24.6824609,115.39932 30.8774348,119 37.5652174,119 C44.5354435,119 50.7637565,114.858242 54,108.891043 C57.2362435,114.858242 63.4645565,119 70.4347826,119 C77.1225652,119 83.3175391,115.39932 86.6549739,109.699871 C86.7254087,109.701963 86.7967826,109.703125 86.8695652,109.703125 C95.7781565,109.703125 103.304348,101.933262 103.304348,92.7363281 C103.304348,91.9532988 103.234852,91.147957 103.093278,90.300082 C106.227861,87.2395508 108,83.1180137 108,78.7910156 C108,75.4543672 106.937609,72.2067363 104.976704,69.4667148 Z M51.6521739,35.1842559 C50.2697739,34.3905352 48.6664435,33.9335938 46.9565217,33.9335938 C45.6598174,33.9335938 44.6086957,34.9741465 44.6086957,36.2578125 C44.6086957,37.5414785 45.6598174,38.5820313 46.9565217,38.5820313 C49.5457043,38.5820313 51.6521739,40.6673203 51.6521739,43.2304688 L51.6521739,87.4299043 C48.2076783,83.5621719 43.1711217,81.1152344 37.5652174,81.1152344 C36.268513,81.1152344 35.2173913,82.1557871 35.2173913,83.4394531 C35.2173913,84.7231191 36.268513,85.7636719 37.5652174,85.7636719 C45.3327652,85.7636719 51.6521739,92.0195391 51.6521739,99.7089844 C51.6521739,107.645959 45.2010522,114.351563 37.5652174,114.351563 C32.1295304,114.351563 27.1256087,111.169475 24.8167565,106.244688 C24.3910957,105.33708 23.4270783,104.801813 22.4219739,104.91384 C22.2559826,104.932666 22.0909304,104.954514 21.9258783,104.976826 C15.2439652,105.881412 7.71918261,98.3911523 9.75615652,90.0118789 C9.96534783,89.1512207 9.66247826,88.2480293 8.97526957,87.6818496 C6.25554783,85.4415352 4.69565217,82.200877 4.69565217,78.7910156 C4.69565217,76.6827168 5.29786957,74.6195078 6.41848696,72.8103359 C9.23446957,75.095043 12.7371913,76.4667969 16.4347826,76.4667969 C17.731487,76.4667969 18.7826087,75.4262441 18.7826087,74.1425781 C18.7826087,72.8589121 17.731487,71.8183594 16.4347826,71.8183594 C10.0630174,71.8183594 4.69565217,66.0612695 4.69565217,59.5 C4.69565217,55.5197754 6.74506957,51.8582012 10.1782957,49.7052773 C11.2359913,49.0419453 11.5818261,47.6736777 10.964113,46.5954727 C9.92050435,44.7735176 9.39130435,42.859291 9.39130435,40.90625 C9.39130435,34.6331836 14.5569913,28.5878906 21.1304348,28.5878906 C27.3841043,28.5878906 32.8695652,34.3442832 32.8695652,40.90625 C32.8695652,42.189916 33.920687,43.2304688 35.2173913,43.2304688 C36.5140957,43.2304688 37.5652174,42.189916 37.5652174,40.90625 C37.5652174,31.7093164 30.0390261,23.9394531 21.1304348,23.9394531 C20.3443826,23.9394531 19.5625565,24.0024395 18.7884783,24.1216719 C18.7873043,24.0605449 18.7826087,24.0010449 18.7826087,23.9394531 C18.7826087,18.7524941 23.0361652,14.6425781 28.173913,14.6425781 C30.6818609,14.6425781 33.0409565,15.6096855 34.8163826,17.3654004 C35.7336783,18.272543 37.220087,18.2716133 38.1366783,17.3637734 C39.0530348,16.4554688 39.0523304,14.9840059 38.1350348,14.0768633 C35.993113,11.9588027 33.2839565,10.6079668 30.348,10.1603223 C32.4185478,7.1176875 35.8616348,4.6484375 39.9130435,4.6484375 C46.166713,4.6484375 51.6521739,10.4045977 51.6521739,16.9667969 L51.6521739,35.1842559 Z M91.5652174,76.4667969 C95.2630435,76.4667969 98.7657652,75.0948105 101.581748,72.8110332 C102.70213,74.6199727 103.304348,76.6829492 103.304348,78.7910156 C103.304348,82.200877 101.744452,85.4415352 99.0249652,87.6818496 C98.3375217,88.2480293 98.034887,89.1514531 98.2440783,90.0118789 C98.4929478,91.0352324 98.6086957,91.9010039 98.6086957,92.7360957 C98.6086957,99.9504707 92.0171739,105.781006 86.0743565,104.976826 C85.9093043,104.954514 85.7440174,104.932434 85.5780261,104.91384 C84.571513,104.801115 83.6086696,105.33708 83.1834783,106.244688 C80.8746261,111.169475 75.8702348,114.351563 70.4347826,114.351563 C62.7989478,114.351563 56.3478261,107.645959 56.3478261,99.7089844 C56.3478261,92.0195391 62.6672348,85.7636719 70.4347826,85.7636719 C71.7312522,85.7636719 72.7826087,84.7231191 72.7826087,83.4394531 C72.7826087,82.1557871 71.7312522,81.1152344 70.4347826,81.1152344 C64.8288783,81.1152344 59.7923217,83.5621719 56.3478261,87.4299043 L56.3478261,43.2304688 C56.3478261,40.6673203 58.4542957,38.5820313 61.0434783,38.5820313 C62.3399478,38.5820313 63.3913043,37.5414785 63.3913043,36.2578125 C63.3913043,34.9741465 62.3399478,33.9335938 61.0434783,33.9335938 C59.3335565,33.9335938 57.7302261,34.3905352 56.3478261,35.1842559 L56.3478261,16.9667969 C56.3478261,10.4045977 61.833287,4.6484375 68.0869565,4.6484375 C72.1383652,4.6484375 75.5812174,7.1176875 77.6517652,10.1600898 C74.7160435,10.6077344 72.0071217,11.9585703 69.8649652,14.0766309 C68.9474348,14.9837734 68.9464957,16.4552363 69.8628522,17.363541 C70.7792087,18.2718457 72.266087,18.272543 73.1831478,17.3654004 C74.9592783,15.6096855 77.3181391,14.6425781 79.826087,14.6425781 C84.9896609,14.6425781 89.2173913,18.776666 89.2173913,23.9394531 C89.2173913,24.0008125 89.2126957,24.0605449 89.2115217,24.1216719 C88.4374435,24.0024395 87.6556174,23.9394531 86.8695652,23.9394531 C77.9609739,23.9394531 70.4347826,31.7093164 70.4347826,40.90625 C70.4347826,42.189916 71.4861391,43.2304688 72.7826087,43.2304688 C74.0790783,43.2304688 75.1304348,42.189916 75.1304348,40.90625 C75.1304348,34.3442832 80.6158957,28.5878906 86.8695652,28.5878906 C93.4392522,28.5878906 98.6086957,34.6301621 98.6086957,40.90625 C98.6086957,42.859291 98.0794957,44.7735176 97.035887,46.5954727 C96.4184087,47.6736777 96.7642435,49.0419453 97.8219391,49.7052773 C101.25493,51.8582012 103.304348,55.5197754 103.304348,59.5 C103.304348,66.0847441 97.9182,71.8183594 91.5652174,71.8183594 C90.2687478,71.8183594 89.2173913,72.8589121 89.2173913,74.1425781 C89.2173913,75.4262441 90.2687478,76.4667969 91.5652174,76.4667969 Z" id="Shape"></path>
                <path d="M46.4057442,49.2123667 C45.5466095,48.2519667 44.0717071,48.1698333 43.1110722,49.0289667 C35.6285268,55.7221333 23.6666742,50.3729667 23.6666742,40.3333333 C23.6666742,39.0446333 22.6220392,38 21.3333371,38 C20.044635,38 19,39.0446333 19,40.3333333 C19,48.4335 24.9283096,55.1721667 32.6733554,56.4466333 C31.7750206,59.2765 29.1234163,61.3333333 26.0000113,61.3333333 C24.7113092,61.3333333 23.6666742,62.3779667 23.6666742,63.6666667 C23.6666742,64.9553667 24.7113092,66 26.0000113,66 C31.6833205,66 36.4276948,61.9143333 37.4571631,56.5262 C40.702135,56.1017667 43.75624,54.7132 46.2223439,52.5070333 C47.1827455,51.6479 47.2648789,50.1727667 46.4057442,49.2123667 Z" id="Path"></path>
                <path d="M21.375,91 C20.0632875,91 19,92.0248554 19,93.2891566 C19,94.5534578 20.0632875,95.5783133 21.375,95.5783133 C27.70105,95.5783133 33.25,101.247867 33.25,107.710843 C33.25,108.975145 34.3132875,110 35.625,110 C36.9367125,110 38,108.975145 38,107.710843 C38,98.6526506 30.3867,91 21.375,91 Z" id="Path"></path>
                <path d="M40.6562997,72 C32.714437,72 25.8956755,76.2977405 22.3051267,82.54675 C21.6669371,83.6578957 22.0623193,85.0692011 23.188233,85.6988889 C24.3143809,86.3285766 25.7445068,85.9386928 26.3829308,84.8275471 C29.180137,79.9583933 34.4876807,76.6249561 40.6562997,76.6249561 C41.9507254,76.6249561 43,75.5896597 43,74.3124781 C43,73.0352964 41.9507254,72 40.6562997,72 Z" id="Path"></path>
                <path d="M82.000012,61.3333333 C78.8766174,61.3333333 76.225022,59.2765 75.3266902,56.4466333 C83.0717102,55.1721667 89,48.4335 89,40.3333333 C89,39.0446333 87.9551351,38 86.6666707,38 C85.3782062,38 84.3333414,39.0446333 84.3333414,40.3333333 C84.3333414,46.7663333 79.0996837,52 72.6666948,52 C69.7929664,52 67.0310045,50.9448667 64.8890082,49.0289667 C63.9288432,48.1698333 62.453479,48.2517333 61.5943472,49.2123667 C60.734982,50.1727667 60.8173485,51.6479 61.7777469,52.5070333 C64.2438426,54.7132 67.2981707,56.1017667 70.5428984,56.5262 C71.5723633,61.9143333 76.3167218,66 82.000012,66 C83.2884765,66 84.3333414,64.9553667 84.3333414,63.6666667 C84.3333414,62.3779667 83.2884765,61.3333333 82.000012,61.3333333 Z" id="Path"></path>
                <path d="M86.625,91 C77.6133,91 70,98.6526506 70,107.710843 C70,108.975145 71.063525,110 72.375,110 C73.686475,110 74.75,108.975145 74.75,107.710843 C74.75,101.247867 80.29895,95.5783133 86.625,95.5783133 C87.936475,95.5783133 89,94.5534578 89,93.2891566 C89,92.0248554 87.936475,91 86.625,91 Z" id="Path"></path>
                <path d="M85.6950408,82.5468595 C82.1133691,76.3127218 75.3039272,72 67.3437192,72 C66.0495175,72 65,73.0352845 65,74.3124514 C65,75.5896183 66.0495175,76.6249027 67.3437192,76.6249027 C73.5079352,76.6249027 78.8195061,79.9573764 81.616735,84.827399 C82.2558672,85.9399193 83.6871765,86.3279487 84.8114587,85.6989619 C85.9376158,85.0692814 86.3330012,83.6579923 85.6950408,82.5468595 Z" id="Path"></path>
            </g>
        </g>
    </g>
</svg>