<?xml version="1.0" encoding="UTF-8"?>
<svg width="94px" height="94px" viewBox="0 0 94 94" version="1.1" xmlns="http://www.w3.org/2000/svg" xmlns:xlink="http://www.w3.org/1999/xlink">
    <!-- Generator: Sketch 59.1 (86144) - https://sketch.com -->
    <title>chemical</title>
    <desc>Created with Sketch.</desc>
    <g id="Page-1" stroke="none" stroke-width="1" fill="none" fill-rule="evenodd">
        <g id="Home-Copy-15" transform="translate(-897.000000, -2762.000000)" fill="#236F8A" fill-rule="nonzero">
            <path d="M988.245197,2811.9375 L980.854086,2811.9375 C973.750727,2811.9375 966.96454,2814.07967 961.269797,2817.98749 C959.62079,2816.79341 957.864146,2815.76428 956.027132,2814.91086 L945.810178,2792.0728 L945.810178,2778.52344 C950.368269,2778.52344 954.07674,2774.81714 954.07674,2770.26172 C954.07674,2765.7063 950.368269,2762 945.810178,2762 L918.254972,2762 C913.696164,2762 909.98841,2765.7063 909.98841,2770.26172 C909.98841,2774.81714 913.696164,2778.52344 918.254972,2778.52344 L918.254972,2792.0728 L899.041673,2835.01868 C896.449762,2839.23058 896.314138,2844.51248 898.700821,2848.85634 C901.120513,2853.26259 905.748209,2856 910.777751,2856 L956.317036,2856 C967.080789,2856 976.841359,2851.66475 983.093665,2844.10657 C988.266006,2837.85362 991,2830.23663 991,2822.07819 L991,2814.69141 C991,2813.1703 989.766474,2811.9375 988.245197,2811.9375 Z M954.349856,2825.80391 L952.517982,2824.11928 C951.385152,2823.07681 949.547233,2823.07681 948.413647,2824.11928 C947.280062,2825.16175 947.280062,2826.85124 948.413647,2827.89301 L951.128206,2830.39007 C949.894866,2832.5021 948.918471,2834.71769 948.208846,2837 C943.587597,2832.3221 941,2826.24522 941,2819.82154 L941,2818 L942.980751,2818 C948.334297,2818 953.556346,2819.42053 958,2822.04477 C956.618537,2823.2721 955.432807,2824.50708 954.349856,2825.80391 L954.349856,2825.80391 Z M926.333333,2778.02213 C927.897569,2778.02213 929.166667,2776.7886 929.166667,2775.26659 C929.166667,2773.74459 927.897569,2772.51106 926.333333,2772.51106 L917.833333,2772.51106 C916.270573,2772.51106 915,2771.27466 915,2769.75553 C915,2768.2364 916.270573,2767 917.833333,2767 L946.166667,2767 C947.728689,2767 949,2768.2364 949,2769.75553 C949,2771.27466 947.728689,2772.51106 946.166667,2772.51106 L937.666667,2772.51106 C936.101693,2772.51106 934.833333,2773.74459 934.833333,2775.26659 C934.833333,2776.7886 936.101693,2778.02213 937.666667,2778.02213 L940.5,2778.02213 L940.5,2792.16719 C940.5,2792.55469 940.583377,2792.93788 940.746441,2793.29165 L945.086458,2802.7315 C941.10651,2803.42827 936.976779,2802.7645 933.396007,2800.79186 C929.6625,2798.73454 925.388889,2797.74858 921.136675,2797.89496 L923.252821,2793.29165 C923.415885,2792.93788 923.5,2792.55469 923.5,2792.16719 L923.5,2778.02213 L926.333333,2778.02213 Z M904.010723,2845.77033 C902.572021,2843.16191 902.675801,2839.98169 904.280124,2837.47092 C904.351917,2837.35911 904.414469,2837.24235 904.469202,2837.12134 L919.191014,2804.34265 C923.157395,2803.52955 927.359768,2804.17352 930.896813,2806.1684 C934.291694,2808.08262 938.071839,2809.05423 941.87402,2809.05423 C943.633302,2809.05423 945.396849,2808.84547 947.128409,2808.42654 L949,2812.59393 C944.407386,2811.66124 941.346591,2812.0363 938.078948,2811.95633 C936.572007,2811.95633 935.349395,2813.1728 935.349395,2814.67374 L935.349395,2819.24591 C935.349395,2828.49004 939.365533,2837.15036 946.401239,2843.15412 C946.205052,2845.4165 946.237039,2847.7086 946.502886,2850 L911.188592,2850 C908.19959,2850 905.448713,2848.37946 904.010723,2845.77033 L904.010723,2845.77033 Z M985,2821.6263 C985,2828.47839 982.688049,2834.87285 978.313327,2840.11862 C973.077672,2846.39779 964.813586,2849.99928 955.640175,2850 L967.546614,2838.19434 C968.630002,2837.12012 968.630002,2835.37917 967.546614,2834.30566 C966.463947,2833.23145 964.707414,2833.23145 963.624025,2834.30566 L951.010496,2846.81243 C950.825598,2839.95964 953.08699,2833.2429 957.526716,2827.79805 C963.121333,2820.93594 971.434533,2817 980.334207,2817 L985,2817 L985,2821.6263 Z" id="chemical"></path>
        </g>
    </g>
</svg>