<?xml version="1.0" encoding="UTF-8"?>
<svg width="100px" height="106px" viewBox="0 0 100 106" version="1.1" xmlns="http://www.w3.org/2000/svg" xmlns:xlink="http://www.w3.org/1999/xlink">
    <!-- Generator: Sketch 59.1 (86144) - https://sketch.com -->
    <title>factory</title>
    <desc>Created with Sketch.</desc>
    <g id="Page-1" stroke="none" stroke-width="1" fill="none" fill-rule="evenodd">
        <g id="Home-Copy-15" transform="translate(-459.000000, -3360.000000)" fill="#236F8A" fill-rule="nonzero">
            <g id="factory" transform="translate(459.000000, 3360.000000)">
                <path d="M98.5951131,46.1771334 C98.0554747,45.8604584 97.3885506,45.8522876 96.8413988,46.1559334 L91.976256,48.8571668 L90.627381,1.71720019 C90.6006421,0.760771024 89.8168185,0 88.8595238,0 L76.4845238,0 C75.5272292,0 74.7434055,0.760771024 74.7166667,1.71720019 L73.0690238,59.3600001 L67.6452381,62.3633334 L67.6452381,47.7000001 C67.6447961,46.7243584 66.8527961,45.9337751 65.876497,45.9342168 C65.5768452,45.9344376 65.2820551,46.0106251 65.0199702,46.1559334 L35.8238095,62.3633334 L35.8238095,47.7000001 C35.8233676,46.7243584 35.0313676,45.9337751 34.0550685,45.9342168 C33.7554167,45.9344376 33.4606265,46.0106251 33.1985417,46.1559334 L1.3771131,63.8226001 C0.81559747,64.1337542 0.466666667,64.7249251 0.466666667,65.3666667 L0.466666667,104.233333 C0.466666667,105.208975 1.2582247,106 2.23452381,106 L97.6988095,106 C98.6751086,106 99.4666667,105.208975 99.4666667,104.233333 L99.4666667,47.7000001 C99.4666667,47.0739376 99.1351935,46.4944709 98.5951131,46.1771334 Z M78.202881,3.53333352 L87.1411667,3.53333352 L87.2437024,7.06666685 L78.1021131,7.06666685 L78.202881,3.53333352 Z M77.9995774,10.6000002 L87.3444702,10.6000002 L88.4935774,50.7899001 L76.6613095,57.3566001 L77.9995774,10.6000002 Z M48.1988095,102.466667 L37.5916667,102.466667 L37.5916667,93.6333334 L48.1988095,93.6333334 L48.1988095,102.466667 Z M62.3416667,102.466667 L51.7345238,102.466667 L51.7345238,93.6333334 L62.3416667,93.6333334 L62.3416667,102.466667 Z M95.9309524,102.466667 L65.877381,102.466667 L65.877381,91.8666667 C65.877381,90.891025 65.0858229,90.1 64.1095238,90.1 L35.8238095,90.1 C34.8475104,90.1 34.0559524,90.891025 34.0559524,91.8666667 L34.0559524,102.466667 L4.00238095,102.466667 L4.00238095,66.4072334 L32.2880952,50.7033334 L32.2880952,65.3666667 C32.2885372,66.3423084 33.0805372,67.1328917 34.0568363,67.1324501 C34.3564881,67.1322292 34.6512783,67.0560417 34.9133631,66.9107334 L64.1095238,50.7033334 L64.1095238,65.3666667 C64.1099658,66.3423084 64.9019658,67.1328917 65.8782649,67.1324501 C66.1779167,67.1322292 66.4727068,67.0560417 66.7347917,66.9107334 L83.4074524,57.6551668 L91.1577381,53.3533334 L95.9309524,50.7033334 L95.9309524,102.466667 Z" id="Shape"></path>
                <path d="M24.6666667,70 L10.2666667,70 C9.27261667,70 8.46666667,70.820875 8.46666667,71.8333333 L8.46666667,79.1666667 C8.46666667,80.179125 9.27261667,81 10.2666667,81 L24.6666667,81 C25.6607167,81 26.4666667,80.179125 26.4666667,79.1666667 L26.4666667,71.8333333 C26.4666667,70.820875 25.6607167,70 24.6666667,70 Z M22.8666667,77.3333333 L12.0666667,77.3333333 L12.0666667,73.6666667 L22.8666667,73.6666667 L22.8666667,77.3333333 Z" id="Shape"></path>
                <path d="M56.6666667,70 L42.2666667,70 C41.2726167,70 40.4666667,70.820875 40.4666667,71.8333333 L40.4666667,79.1666667 C40.4666667,80.179125 41.2726167,81 42.2666667,81 L56.6666667,81 C57.6607167,81 58.4666667,80.179125 58.4666667,79.1666667 L58.4666667,71.8333333 C58.4666667,70.820875 57.6607167,70 56.6666667,70 Z M54.8666667,77.3333333 L44.0666667,77.3333333 L44.0666667,73.6666667 L54.8666667,73.6666667 L54.8666667,77.3333333 Z" id="Shape"></path>
                <path d="M88.6666667,70 L74.2666667,70 C73.2726167,70 72.4666667,70.820875 72.4666667,71.8333333 L72.4666667,79.1666667 C72.4666667,80.179125 73.2726167,81 74.2666667,81 L88.6666667,81 C89.6607167,81 90.4666667,80.179125 90.4666667,79.1666667 L90.4666667,71.8333333 C90.4666667,70.820875 89.6607167,70 88.6666667,70 Z M86.8666667,77.3333333 L76.0666667,77.3333333 L76.0666667,73.6666667 L86.8666667,73.6666667 L86.8666667,77.3333333 Z" id="Shape"></path>
            </g>
        </g>
    </g>
</svg>