<?xml version="1.0" encoding="UTF-8"?>
<svg width="77px" height="100px" viewBox="0 0 77 100" version="1.1" xmlns="http://www.w3.org/2000/svg" xmlns:xlink="http://www.w3.org/1999/xlink">
    <!-- Generator: Sketch 59.1 (86144) - https://sketch.com -->
    <title>fire</title>
    <desc>Created with Sketch.</desc>
    <g id="Page-1" stroke="none" stroke-width="1" fill="none" fill-rule="evenodd">
        <g id="Home-Copy-17" transform="translate(-1121.000000, -3113.000000)" fill="#B3A484">
            <path d="M1155.59395,3162.47126 C1158.21997,3158.76998 1157.92693,3154.87185 1156.10603,3147.85986 C1152.50482,3133.99215 1153.93881,3126.39118 1166.35347,3117.39222 L1172.41283,3113 L1173.8784,3120.3589 C1175.43594,3128.17962 1177.99376,3133.01673 1184.56135,3142.32101 C1184.82228,3142.69058 1184.82228,3142.69058 1185.08437,3143.06181 C1194.54461,3156.46502 1198,3164.54479 1198,3179.21777 C1198,3197.01787 1180.08142,3213 1159.55475,3213 C1139.02695,3213 1121.1095,3197.02006 1121.1095,3179.21777 C1121.1095,3178.88503 1121.10984,3178.89511 1121.0537,3177.42466 C1120.61948,3166.05141 1122.71368,3157.15009 1131.18728,3147.53901 C1132.97762,3145.50834 1135.01267,3143.55664 1137.30277,3141.68912 L1142.35828,3137.56649 L1144.79015,3143.63338 C1146.58707,3148.11624 1148.69251,3151.64019 1151.07088,3154.22619 C1153.0853,3156.41646 1154.57965,3159.17074 1155.59395,3162.47126 Z" id="fire"></path>
        </g>
    </g>
</svg>