<svg width="68" height="82" viewBox="0 0 68 82" xmlns="http://www.w3.org/2000/svg">
    <g fill="none">
        <path d="M50.705 30.25A9.593 9.593 0 0055 22.263V7H14v15.262a9.593 9.593 0 004.295 7.989l12.736 9.306c.462.337.736.873.736 1.443a1.79 1.79 0 01-.734 1.443l-12.736 9.306A9.591 9.591 0 0014 59.74V75h41V59.738a9.593 9.593 0 00-4.295-7.989l-12.736-9.306A1.787 1.787 0 0137.233 41c0-.57.274-1.106.734-1.443l12.738-9.306z" fill="#E6E6E6"/>
        <path fill="#789FBD" d="M7 75h55v5H7zM7 2h55v5H7z"/>
        <path d="M66.64 79H1.36C.61 79 0 79.67 0 80.5S.61 82 1.36 82h65.28c.75 0 1.36-.67 1.36-1.5s-.61-1.5-1.36-1.5zM1.36 3h65.28C67.39 3 68 2.33 68 1.5S67.39 0 66.64 0H1.36C.61 0 0 .67 0 1.5S.61 3 1.36 3zm47.153 23.729a5.514 5.514 0 002.486-4.605 3.889 3.889 0 00-2.965-3.766l-20.697-5.132C22.595 12.05 18 15.607 18 20.456v1.668c0 1.853.93 3.575 2.486 4.605l12.638 9.199v21.65c0 4.95-5.175 8.23-9.704 6.15-2.44-1.119-5.393.538-5.419 3.204V75H51V59.64c-.026-2.633-2.597-4.53-5.212-4.078l-2.818.487c-3.705.64-7.096-2.189-7.096-5.917V35.928l12.639-9.2z" fill="#236F8A"/>
    </g>
</svg>
