<svg width="22" height="22" viewBox="0 0 22 22" xmlns="http://www.w3.org/2000/svg">
    <path d="M5.035 17.74A8.966 8.966 0 0011 20a8.966 8.966 0 005.965-2.26C16.672 16.687 14.569 16 11 16c-3.57 0-5.672.687-5.965 1.74zm-1.434-1.615C4.726 14.638 7.37 14 11 14s6.274.638 7.4 2.125a9 9 0 10-14.799 0zM11 22C4.925 22 0 17.075 0 11S4.925 0 11 0s11 4.925 11 11-4.925 11-11 11zM7 9c0-2.244 1.58-4 4-4 2.414 0 4 1.922 4 4.2 0 3.28-1.782 4.8-4 4.8-2.24 0-4-1.573-4-5zm2 0c0 2.27.818 3 2 3 1.178 0 2-.702 2-2.8 0-1.25-.784-2.2-2-2.2-1.266 0-2 .816-2 2z" fill="#03182A" fill-rule="evenodd"/>
</svg>
