<?xml version="1.0" encoding="UTF-8"?>
<svg width="117px" height="117px" viewBox="0 0 117 117" version="1.1" xmlns="http://www.w3.org/2000/svg" xmlns:xlink="http://www.w3.org/1999/xlink">
    <!-- Generator: Sketch 59.1 (86144) - https://sketch.com -->
    <title>icon</title>
    <desc>Created with Sketch.</desc>
    <g id="Page-1" stroke="none" stroke-width="1" fill="none" fill-rule="evenodd">
        <g id="Home-Copy-16" transform="translate(-226.000000, -3368.000000)" fill="#236F8A">
            <path d="M284.5,3368 C316.808658,3368 343,3394.19134 343,3426.5 C343,3458.80866 316.808658,3485 284.5,3485 C252.191342,3485 226,3458.80866 226,3426.5 C226,3394.19134 252.191342,3368 284.5,3368 Z M237,3426 C237,3452.50967 258.490332,3474 285,3474 C296.338157,3474 306.758146,3470.06885 314.971317,3463.4952 L247.504799,3396.02868 C240.931149,3404.24185 237,3414.66184 237,3426 Z M285,3378 C273.661843,3378 263.241854,3381.93115 255.028683,3388.5048 L322.495201,3455.97132 C329.068851,3447.75815 333,3437.33816 333,3426 C333,3399.49033 311.509668,3378 285,3378 Z" id="icon"></path>
        </g>
    </g>
</svg>