
<svg width="76px" height="94px" viewBox="0 0 76 94" version="1.1" xmlns="http://www.w3.org/2000/svg" xmlns:xlink="http://www.w3.org/1999/xlink">
    <g id="Page-1" stroke="none" stroke-width="1" fill="none" fill-rule="evenodd">
        <g id="Home-Copy-9" transform="translate(-246.000000, -3024.000000)" fill="#236F8A">
            <path d="M284,3024 L286.777075,3026.41789 C310.130033,3046.75043 322,3064.50401 322,3080.10963 C322,3102.20955 304.701334,3118 284,3118 C263.298666,3118 246,3102.20955 246,3080.10963 C246,3064.50401 257.869967,3046.75043 281.222925,3026.41789 L284,3024 Z M284.5,3036 C264.720722,3053.72079 255,3068.7371 255,3080.67383 C255,3097.86482 268.334485,3110 284.5,3110 C300.665515,3110 314,3097.86482 314,3080.67383 C314,3068.7371 304.279278,3053.72079 284.5,3036 Z M309,3080 C309,3093.80712 297.807119,3105 284,3105 L284,3096.66667 C293.204746,3096.66667 300.666667,3089.20475 300.666667,3080 L309,3080 Z" id="icon"></path>
        </g>
    </g>
</svg>
