<?xml version="1.0" encoding="UTF-8"?>
<svg width="106px" height="98px" viewBox="0 0 106 98" version="1.1" xmlns="http://www.w3.org/2000/svg" xmlns:xlink="http://www.w3.org/1999/xlink">
    <!-- Generator: Sketch 59.1 (86144) - https://sketch.com -->
    <title>paw</title>
    <desc>Created with Sketch.</desc>
    <g id="Page-1" stroke="none" stroke-width="1" fill="none" fill-rule="evenodd">
        <g id="Home-Copy-19" transform="translate(-231.000000, -3044.000000)" fill="#236F8A" fill-rule="nonzero">
            <g id="paw" transform="translate(231.000000, 3044.000000)">
                <path d="M89.4818806,83.3485447 C92.3189336,96.4155431 78.1806033,99.2508315 71.9530902,97.549504 C65.725577,95.8481765 53.0233738,95.5647828 53.0233738,95.5647828 C53.0233738,95.5647828 40.2859694,95.8483695 34.0584563,97.549504 C27.8309432,99.2626074 13.6808792,96.41535 16.5061985,83.3485447 C19.3315178,70.2817394 31.7865441,70.8487198 35.2004716,53.2333296 C38.6026654,35.6179393 53.0352998,36.7520933 53.0352998,36.7520933 C53.0352998,36.7520933 67.4325408,35.6179393 70.834927,53.2333296 C74.2251947,70.8487198 86.6565613,70.2815463 89.4818806,83.3485447 Z M66.090668,35.6061634 C73.7543082,37.8271748 82.2185324,31.754673 85.0086507,22.043033 C87.7985766,12.343362 83.8549017,2.67901864 76.1912615,0.458007287 C68.527429,-1.76319711 60.063397,4.30949772 57.2732788,14.0211377 C54.4833529,23.7208087 58.4270278,33.3851521 66.090668,35.6061634 Z M97.8518506,32.0737805 C90.4707808,29.0491125 81.4062147,34.1768398 77.6037288,43.5336585 C73.8012429,52.8908633 76.6973491,62.9214178 84.0784189,65.9339238 C91.4594887,68.9466229 100.524055,63.8308645 104.326541,54.4738527 C108.129027,45.116841 105.233113,35.0982555 97.8518506,32.0737805 Z M39.8976034,35.6061634 C47.5612436,33.384959 51.5049185,23.7208087 48.7149926,14.0211377 C45.9250667,4.32146667 37.4491088,-1.75122817 29.7970099,0.469976232 C22.1451034,2.69098758 18.1896949,12.3551379 20.9796207,22.055002 C23.769739,31.754673 32.2339633,37.8271748 39.8976034,35.6061634 Z M21.9213938,65.9339238 C29.302656,62.9094488 32.1985698,52.8788944 28.396084,43.5336585 C24.5935981,34.1884227 15.5290319,29.0491125 8.14796215,32.0737805 C0.766892369,35.0982555 -2.12902146,45.1288099 1.6734644,54.4738527 C5.4757579,63.8308645 14.5403241,68.9583988 21.9213938,65.9339238 Z" id="Shape"></path>
            </g>
        </g>
    </g>
</svg>