<?xml version="1.0" encoding="UTF-8"?>
<svg width="94px" height="94px" viewBox="0 0 94 94" version="1.1" xmlns="http://www.w3.org/2000/svg" xmlns:xlink="http://www.w3.org/1999/xlink">
    <!-- Generator: Sketch 59.1 (86144) - https://sketch.com -->
    <title>icon</title>
    <desc>Created with Sketch.</desc>
    <g id="Page-1" stroke="none" stroke-width="1" fill="none" fill-rule="evenodd">
        <g id="Home-Copy-11" transform="translate(-674.000000, -3083.000000)" fill="#236F8A">
            <path d="M725,3160 L725,3176.81274 C723.682552,3176.93668 722.348359,3177 721,3177 C719.651641,3177 718.317448,3176.93668 717,3176.81274 L717,3160 C718.306412,3160.19509 719.641915,3160.29603 721,3160.29603 C722.358085,3160.29603 723.693588,3160.19509 725,3160 Z M744.97401,3148 L757,3160.02599 C755.193391,3162.1932 753.193201,3164.19339 751.02599,3166 L739,3153.97401 C741.264614,3152.27792 743.27792,3150.26461 744.97401,3148 Z M697.02599,3148 C698.72208,3150.26461 700.735386,3152.27792 703,3153.97401 L690.97401,3166 C688.806799,3164.19339 686.806609,3162.1932 685,3160.02599 L697.02599,3148 Z M721.5,3108 C733.374122,3108 743,3117.62588 743,3129.5 C743,3141.37412 733.374122,3151 721.5,3151 C709.625878,3151 700,3141.37412 700,3129.5 C700,3117.62588 709.625878,3108 721.5,3108 Z M721.5,3117 C714.596441,3117 709,3122.59644 709,3129.5 C709,3136.40356 714.596441,3142 721.5,3142 C728.403559,3142 734,3136.40356 734,3129.5 C734,3122.59644 728.403559,3117 721.5,3117 Z M767.812736,3126 C767.936681,3127.31745 768,3128.65164 768,3130 C768,3131.34836 767.936681,3132.68255 767.812736,3134 L751,3134 C751.195089,3132.69359 751.296031,3131.35809 751.296031,3130 C751.296031,3128.64191 751.195089,3127.30641 751,3126 L767.812736,3126 Z M691,3126 C690.804911,3127.30641 690.703969,3128.64191 690.703969,3130 C690.703969,3131.35809 690.804911,3132.69359 691,3134 L674.187264,3134 C674.063319,3132.68255 674,3131.34836 674,3130 C674,3128.65164 674.063319,3127.31745 674.187264,3126 L691,3126 Z M751.02599,3094 C753.193201,3095.80661 755.193391,3097.8068 757,3099.97401 L744.97401,3112 C743.27792,3109.73539 741.264614,3107.72208 739,3106.02599 L751.02599,3094 Z M690.97401,3094 L703,3106.02599 C700.735386,3107.72208 698.72208,3109.73539 697.02599,3112 L685,3099.97401 C686.806609,3097.8068 688.806799,3095.80661 690.97401,3094 Z M721,3083 C722.348359,3083 723.682552,3083.06332 725,3083.18726 L725,3100 C723.693588,3099.80491 722.358085,3099.70397 721,3099.70397 C719.641915,3099.70397 718.306412,3099.80491 717,3100 L717,3083.18726 C718.317448,3083.06332 719.651641,3083 721,3083 Z" id="icon"></path>
        </g>
    </g>
</svg>