<?xml version="1.0" encoding="UTF-8"?>
<svg width="68px" height="82px" viewBox="0 0 68 82" version="1.1" xmlns="http://www.w3.org/2000/svg" xmlns:xlink="http://www.w3.org/1999/xlink">
    <!-- Generator: Sketch 59.1 (86144) - https://sketch.com -->
    <title>time</title>
    <desc>Created with Sketch.</desc>
    <g id="Page-1" stroke="none" stroke-width="1" fill="none" fill-rule="evenodd">
        <g id="Home-Copy-19" transform="translate(-1129.000000, -3053.000000)" fill-rule="nonzero">
            <g id="time" transform="translate(1129.000000, 3053.000000)">
                <path d="M50.7045667,30.25056 C53.3873333,28.46896 55,25.47152 55,22.26192 L55,7 L14,7 L14,22.26192 C14,25.47152 15.6126667,28.46896 18.2954333,30.25056 L31.0314,39.55704 C31.4933333,39.89432 31.7666667,40.43016 31.7666667,41 L31.7666667,41 C31.7666667,41.56984 31.4933333,42.10568 31.0327667,42.44296 L18.2968,51.74944 C15.6126667,53.53104 14,56.52848 14,59.73808 L14,75 L55,75 L55,59.73808 C55,56.52848 53.3873333,53.53104 50.7045667,51.74944 L37.9686,42.44296 C37.5066667,42.10568 37.2333333,41.56984 37.2333333,41 L37.2333333,41 C37.2333333,40.43016 37.5066667,39.89432 37.9672333,39.55704 L50.7045667,30.25056 Z" id="Path" fill="#E6E6E6"></path>
                <rect id="Rectangle" fill="#789FBD" x="7" y="75" width="55" height="5"></rect>
                <rect id="Rectangle" fill="#789FBD" x="7" y="2" width="55" height="5"></rect>
                <path d="M66.64,79 L61.2,79 L1.36,79 C0.60928,79 0,79.6705 0,80.5 C0,81.3295 0.60928,82 1.36,82 L61.2,82 L66.64,82 C67.39072,82 68,81.3295 68,80.5 C68,79.6705 67.39072,79 66.64,79 Z" id="Path" fill="#236F8A"></path>
                <path d="M1.36,3 L61.2,3 L66.64,3 C67.39072,3 68,2.3295 68,1.5 C68,0.6705 67.39072,0 66.64,0 L61.2,0 L1.36,0 C0.60928,0 0,0.6705 0,1.5 C0,2.3295 0.60928,3 1.36,3 Z" id="Path" fill="#236F8A"></path>
                <path d="M48.5127286,26.7287829 C50.0691638,25.6992697 50.9986251,23.9770508 50.9986251,22.123927 L50.9986251,22.123927 C50.9986251,20.3430736 49.776301,18.7899404 48.0342486,18.3576812 L27.3372359,13.2264781 C22.5950585,12.0496967 18,15.6073127 18,20.4562519 L18,22.123927 C18,23.9770508 18.9294613,25.6992697 20.4858964,26.7287829 L33.1243698,35.927586 L33.1243698,57.5773633 C33.1243698,62.5272084 27.9490855,65.8080148 23.4200242,63.7285344 L23.4200242,63.7285344 C20.9808758,62.609024 18.0274989,64.2657904 18.0013749,66.9316161 C18.0013749,66.9507064 18.0013749,66.9684331 18.0013749,66.9875234 L18.0013749,75 L51,75 L51,59.6963879 C51,59.6772976 51,59.6595708 51,59.6404805 C50.9738761,57.0073811 48.4027332,55.1106222 45.7875922,55.5619718 L42.9703346,56.0487747 C39.264864,56.6883002 35.8742552,53.8602068 35.8742552,50.1321416 L35.8742552,35.927586 L48.5127286,26.7287829 Z" id="Path" fill="#236F8A"></path>
            </g>
        </g>
    </g>
</svg>