<svg width="63" height="109" viewBox="0 0 63 109" xmlns="http://www.w3.org/2000/svg">
    <g fill="#236F8A" fill-rule="evenodd">
        <path d="M44.57 16.28c0-1.448.541-2.895 1.624-3.8a4.439 4.439 0 013.428-1.627h12.99V0H26.528C18.59 0 12.095 6.512 12.095 14.47v10.854H6.682c-3.067 0-5.412 2.351-5.412 5.426v10.853h54.125V30.75c0-3.075-2.345-5.426-5.413-5.426H44.57v-9.045z" fill-rule="nonzero"/>
        <path d="M.635 45.35h54.228v46.942H.635z"/>
        <path d="M.44 96.52v7.131c0 3.031 2.371 5.349 5.472 5.349H49.68c3.1 0 5.471-2.318 5.471-5.349v-7.132H.441z" fill-rule="nonzero"/>
    </g>
</svg>
