<svg xmlns="http://www.w3.org/2000/svg" viewBox="0 0 474.81 150.65"><title>Asset 1</title><g id="Layer_2" data-name="Layer 2"><g id="Layer_1-2" data-name="Layer 1"><path d="M34,29.85c20.46,0,31.41,16.42,31.41,34.8S54.48,99.32,34,99.32C22,99.32,13.56,94,8.86,85.5V97.76H0V0H9.25V43.4C13.69,35.45,22,29.85,34,29.85ZM32.32,91c14.86,0,23.73-11.86,23.73-26.33,0-14.73-8.87-26.46-23.73-26.46S9,49.92,9,64.65C9,79.12,17.47,91,32.32,91Z" style="fill:#4faebf"/><path d="M78.2,64.65c0-18.25,12.9-34.8,33.76-34.8s33.89,16.55,33.89,34.8S132.94,99.32,112,99.32,78.2,82.9,78.2,64.65ZM112,91c14.86,0,24.5-11.47,24.5-26.33S126.82,38.19,112,38.19,87.58,49.66,87.58,64.65,97.23,91,112,91Z" style="fill:#4faebf"/><path d="M158.62,64.65c0-18.25,12.9-34.8,33.76-34.8s33.88,16.55,33.88,34.8-12.9,34.67-33.88,34.67S158.62,82.9,158.62,64.65ZM192.38,91c14.85,0,24.5-11.47,24.5-26.33s-9.65-26.46-24.5-26.46S168,49.66,168,64.65,177.65,91,192.38,91Z" style="fill:#4faebf"/><path d="M298.21,97.76H289V57.22c0-11.6-5.09-19.29-16.69-19.29-10.82,0-19,7.56-19,20.33v39.5H244V31.41h8.86V41.58c2.35-4.3,8.08-11.73,21-11.73,10.81,0,18.11,5.08,21.63,12.77,3.65-6.39,11.47-12.77,23.33-12.77,16.16,0,24.25,11.47,24.25,25.55V97.76h-9.26V57.22c0-11.21-5-19.29-16.55-19.29-10.43,0-19,7-19,21.11Z" style="fill:#4faebf"/><path d="M369.5,67.26C370.42,80.68,379.15,91,393.09,91c10.17,0,18-5.87,20.86-14h9.64C419.68,89.67,408.73,99.32,393,99.32c-21,0-32.71-16.16-32.71-34.8,0-18.38,12.64-34.67,32.58-34.67S424.77,45,424.77,63.74c0,1.43-.13,3.52-.13,3.52Zm.26-7.56h45.75c-1.17-12.78-9.64-21.51-22.68-21.51S371.33,47.44,369.76,59.7Z" style="fill:#4faebf"/><path d="M474.81,39.62s-1.56-.13-3.25-.13c-11.34,0-19.82,6.78-19.82,20.6V97.76h-9.25V31.41h8.86v10.3c2.48-4.56,9-10.95,21.25-10.95.65,0,2.21.13,2.21.13Z" style="fill:#4faebf"/><path d="M249.56,122.77c1.13-2.08,4.34-5.67,10.57-5.67,7.93,0,12.15,5.23,12.15,12.34V149.9h-4.47V130.32c0-5.79-2.7-9.32-8.43-9.32-5.42,0-9.63,3.4-9.63,9.82V149.9h-4.47v-32h4.28Z" style="fill:#231f20"/><path d="M280.71,141.08c0-5.16,3.78-8.62,12.09-9.69l11.2-1.45v-.88q0-8.11-9.06-8.12c-4.72,0-8.06,1.83-8.94,6.36h-4.47c.82-5.73,4.72-10.2,13.6-10.2,9.25,0,13.34,4.91,13.34,12v14c0,2.14.32,5.41.95,6.74H305a17.5,17.5,0,0,1-.69-5.48c-2.33,4-6.74,6.23-12.28,6.23C284.43,150.65,280.71,146.87,280.71,141.08Zm12.66-6.17c-6.11.82-8.25,3-8.25,6.17,0,4.6,3.84,5.86,7.43,5.86,7.61,0,11.45-5.23,11.45-9.76v-3.71Z" style="fill:#231f20"/><path d="M332.2,149.71a14.27,14.27,0,0,1-3.4.31c-5.41,0-8.31-3-8.31-8.75V121.63h-6.1v-3.77h6.1v-9.13H325v9.13h7.37v3.77H325V141c0,3.4,1.32,5,4.41,5a15.67,15.67,0,0,0,2.83-.31Z" style="fill:#231f20"/><path d="M361.34,117.86h4.47v32h-4.28v-4.66c-1.07,2.07-4.28,5.41-10.39,5.41-7.93,0-11.95-5.16-11.95-12.27V117.86h4.46v19.57c0,5.79,2.52,9.32,8.25,9.32,5.16,0,9.44-3.15,9.44-9.95Z" style="fill:#231f20"/><path d="M392.43,121.82s-.75-.06-1.57-.06c-5.48,0-9.57,3.27-9.57,9.94v18.2h-4.47v-32h4.28v5c1.2-2.2,4.35-5.29,10.26-5.29.32,0,1.07.07,1.07.07Z" style="fill:#231f20"/><path d="M396.71,141.08c0-5.16,3.78-8.62,12.09-9.69l11.2-1.45v-.88q0-8.11-9.06-8.12c-4.72,0-8.06,1.83-8.94,6.36h-4.47c.82-5.73,4.72-10.2,13.6-10.2,9.25,0,13.34,4.91,13.34,12v14c0,2.14.32,5.41.94,6.74H421a17.5,17.5,0,0,1-.69-5.48c-2.33,4-6.74,6.23-12.28,6.23C400.43,150.65,396.71,146.87,396.71,141.08Zm12.65-6.17c-6.1.82-8.24,3-8.24,6.17,0,4.6,3.84,5.86,7.43,5.86,7.61,0,11.45-5.23,11.45-9.76v-3.71Z" style="fill:#231f20"/><path d="M435.17,149.9V102.69h4.47V149.9Z" style="fill:#231f20"/><path d="M447.76,139.89h4.53c.31,4.09,3.08,6.86,8.62,6.86s8.44-2.21,8.44-5.42c0-9.18-19.83-1.63-19.83-14.79,0-4.91,4.28-9.44,11.9-9.44,8.87,0,11.83,5.79,12.21,10.14h-4.47c-.38-3.47-2.77-6.24-7.87-6.24s-7.43,2.46-7.43,5.35c0,8.88,19.83,1.39,19.83,14.86,0,4.85-4.09,9.44-12.78,9.44C451.66,150.65,448.13,145.49,447.76,139.89Z" style="fill:#231f20"/></g></g></svg>
