<?xml version="1.0" encoding="UTF-8"?>
<svg width="101px" height="64px" viewBox="0 0 101 64" version="1.1" xmlns="http://www.w3.org/2000/svg" xmlns:xlink="http://www.w3.org/1999/xlink">
    <!-- Generator: Sketch 59.1 (86144) - https://sketch.com -->
    <title>Group 3</title>
    <desc>Created with Sketch.</desc>
    <g id="Page-1" stroke="none" stroke-width="1" fill="none" fill-rule="evenodd">
        <g id="Home-Copy-11" transform="translate(-1113.000000, -3097.000000)" fill="#236F8A" fill-rule="nonzero">
            <g id="Group-3" transform="translate(1113.000000, 3097.000000)">
                <path d="M11.3705972,19.5556119 C11.3705972,14.2347763 15.6181588,9.90573905 20.8393141,9.90573905 L42.0943153,9.90573905 C45.3947981,9.90573905 48.3048076,11.6368473 50.0001036,14.2535651 C51.6956067,11.6366362 54.6054091,9.90573905 57.9058918,9.90573905 L79.1611002,9.90573905 C84.3820484,9.90573905 88.62961,14.2347763 88.62961,19.5556119 L88.62961,20 L91,20 L91,10.589949 C91,4.75062542 86.3385575,0 80.6088548,0 L19.3911452,0 C13.6614425,0 9,4.75062542 9,10.589949 L9,20 L11.37039,20 L11.37039,19.5556119 L11.3705972,19.5556119 Z" id="Path"></path>
                <path d="M96.9819516,24 L4.01783925,24 C1.80239127,24 0,25.8061974 0,28.0263238 L0,51.4000021 C0,53.6201285 1.80239127,55.4263259 4.01783925,55.4263259 L5.69035293,55.4263259 L3.71416413,61.0155197 C3.30236228,62.17997 3.91075821,63.4584342 5.07254558,63.8708961 C5.31912475,63.9582927 5.57072334,64 5.81813909,64 C6.7369027,64 7.5977338,63.4269966 7.92211404,62.5094365 L10.4265971,55.4261163 L90.5734029,55.4261163 L93.077886,62.5094365 C93.4022662,63.4269966 94.2628882,64 95.1818609,64 C95.4292767,64 95.6808753,63.9582927 95.9274544,63.8708961 C97.0894509,63.4582246 97.6976377,62.1797604 97.2858359,61.0155197 L95.3096471,55.4263259 L96.9821608,55.4263259 C99.1976087,55.4263259 101,53.6201285 101,51.4000021 L101,28.0263238 C101,25.8061974 99.1976087,24 96.9819516,24 Z" id="Path"></path>
                <path d="M57.9907755,14 C55.2389253,14 53,16.0645685 53,18.60235 L53,19 L84,19 L84,18.60235 C84,16.0645685 81.7612795,14 79.0094293,14 L57.9907755,14 Z" id="Path"></path>
                <path d="M20.9907755,14 C18.2387205,14 16,16.0647574 16,18.6025389 L16,19 L47,19 L47,18.60235 C47,16.0645685 44.7612795,14 42.0092245,14 L20.9907755,14 L20.9907755,14 Z" id="Path"></path>
            </g>
        </g>
    </g>
</svg>
