<svg id="Layer_1" data-name="Layer 1" xmlns="http://www.w3.org/2000/svg" viewBox="0 0 474.81 150.65"><title>bn-logo-white</title><path d="M52.08,48.09c20.47,0,31.42,16.42,31.42,34.8s-11,34.67-31.42,34.67c-12,0-20.46-5.34-25.15-13.82V116H18.07V18.24h9.25v43.4C31.75,53.69,40.09,48.09,52.08,48.09Zm-1.69,61.13c14.86,0,23.72-11.86,23.72-26.33,0-14.73-8.86-26.46-23.72-26.46S27.06,68.16,27.06,82.89C27.06,97.36,35.53,109.22,50.39,109.22Z" transform="translate(-18.07 -18.24)" style="fill:#fff"/><path d="M96.27,82.89c0-18.25,12.9-34.8,33.76-34.8s33.88,16.55,33.88,34.8S151,117.56,130,117.56,96.27,101.14,96.27,82.89ZM130,109.22c14.85,0,24.5-11.47,24.5-26.33S144.88,56.43,130,56.43,105.65,67.9,105.65,82.89,115.3,109.22,130,109.22Z" transform="translate(-18.07 -18.24)" style="fill:#fff"/><path d="M176.68,82.89c0-18.25,12.91-34.8,33.76-34.8s33.89,16.55,33.89,34.8-12.9,34.67-33.89,34.67S176.68,101.14,176.68,82.89Zm33.76,26.33c14.86,0,24.51-11.47,24.51-26.33s-9.65-26.46-24.51-26.46S186.07,67.9,186.07,82.89,195.71,109.22,210.44,109.22Z" transform="translate(-18.07 -18.24)" style="fill:#fff"/><path d="M316.28,116H307V75.46c0-11.6-5.08-19.29-16.68-19.29-10.82,0-19,7.56-19,20.33V116h-9.26V49.65h8.87V59.82c2.34-4.3,8.08-11.73,21-11.73,10.82,0,18.12,5.08,21.64,12.77,3.65-6.38,11.47-12.77,23.33-12.77,16.16,0,24.24,11.47,24.24,25.55V116h-9.25V75.46c0-11.21-4.95-19.29-16.55-19.29-10.43,0-19,7-19,21.12Z" transform="translate(-18.07 -18.24)" style="fill:#fff"/><path d="M387.57,85.5c.91,13.42,9.64,23.72,23.59,23.72,10.17,0,18-5.87,20.85-14h9.65c-3.91,12.65-14.86,22.29-30.63,22.29-21,0-32.72-16.16-32.72-34.8,0-18.38,12.65-34.67,32.59-34.67S442.83,63.21,442.83,82c0,1.43-.13,3.52-.13,3.52Zm.26-7.56h45.75c-1.17-12.78-9.65-21.51-22.68-21.51S389.39,65.68,387.83,77.94Z" transform="translate(-18.07 -18.24)" style="fill:#fff"/><path d="M492.88,57.86s-1.56-.13-3.26-.13c-11.34,0-19.81,6.78-19.81,20.6V116h-9.25V49.65h8.86V60c2.48-4.56,9-11,21.25-11,.65,0,2.21.13,2.21.13Z" transform="translate(-18.07 -18.24)" style="fill:#fff"/><path d="M267.63,141c1.13-2.08,4.34-5.67,10.57-5.67,7.93,0,12.15,5.23,12.15,12.34v20.46h-4.47V148.56c0-5.79-2.71-9.31-8.44-9.31-5.41,0-9.63,3.39-9.63,9.81v19.08h-4.47v-32h4.29Z" transform="translate(-18.07 -18.24)" style="fill:#fff"/><path d="M298.78,159.32c0-5.16,3.78-8.62,12.09-9.69l11.2-1.45v-.88q0-8.12-9.06-8.12c-4.72,0-8.06,1.83-8.94,6.36H299.6c.82-5.73,4.72-10.2,13.59-10.2,9.26,0,13.35,4.91,13.35,12v14c0,2.14.31,5.41.94,6.74h-4.4a17.27,17.27,0,0,1-.7-5.48c-2.32,4-6.73,6.23-12.27,6.23C302.49,168.89,298.78,165.11,298.78,159.32Zm12.65-6.16c-6.1.81-8.24,3-8.24,6.16,0,4.6,3.84,5.86,7.42,5.86,7.62,0,11.46-5.23,11.46-9.76v-3.71Z" transform="translate(-18.07 -18.24)" style="fill:#fff"/><path d="M350.27,168a14.37,14.37,0,0,1-3.4.31c-5.42,0-8.31-3-8.31-8.75V139.88h-6.11V136.1h6.11V127H343v9.13h7.36v3.78H343V159.2c0,3.4,1.32,5,4.4,5a15.7,15.7,0,0,0,2.84-.31Z" transform="translate(-18.07 -18.24)" style="fill:#fff"/><path d="M379.41,136.1h4.47v32H379.6v-4.66c-1.07,2.07-4.28,5.41-10.39,5.41-7.93,0-12-5.16-12-12.27V136.1h4.47v19.57c0,5.79,2.52,9.32,8.25,9.32,5.16,0,9.44-3.15,9.44-10Z" transform="translate(-18.07 -18.24)" style="fill:#fff"/><path d="M410.5,140.06s-.76-.06-1.57-.06c-5.48,0-9.57,3.27-9.57,9.95v18.19h-4.47v-32h4.28v5c1.2-2.2,4.34-5.29,10.26-5.29.31,0,1.07.07,1.07.07Z" transform="translate(-18.07 -18.24)" style="fill:#fff"/><path d="M414.78,159.32c0-5.16,3.78-8.62,12.08-9.69l11.21-1.45v-.88q0-8.12-9.07-8.12c-4.72,0-8.05,1.83-8.93,6.36H415.6c.82-5.73,4.72-10.2,13.59-10.2,9.26,0,13.35,4.91,13.35,12v14c0,2.14.31,5.41.94,6.74h-4.41a17.5,17.5,0,0,1-.69-5.48c-2.33,4-6.73,6.23-12.27,6.23C418.49,168.89,414.78,165.11,414.78,159.32Zm12.65-6.16c-6.1.81-8.25,3-8.25,6.16,0,4.6,3.84,5.86,7.43,5.86,7.62,0,11.46-5.23,11.46-9.76v-3.71Z" transform="translate(-18.07 -18.24)" style="fill:#fff"/><path d="M453.24,168.14V120.93h4.47v47.21Z" transform="translate(-18.07 -18.24)" style="fill:#fff"/><path d="M465.82,158.13h4.53c.32,4.09,3.09,6.86,8.63,6.86s8.43-2.2,8.43-5.41c0-9.19-19.83-1.64-19.83-14.8,0-4.9,4.29-9.44,11.9-9.44,8.88,0,11.83,5.79,12.21,10.14h-4.47c-.37-3.47-2.77-6.23-7.86-6.23s-7.43,2.45-7.43,5.35c0,8.87,19.82,1.38,19.82,14.85,0,4.85-4.09,9.44-12.77,9.44C469.73,168.89,466.2,163.73,465.82,158.13Z" transform="translate(-18.07 -18.24)" style="fill:#fff"/></svg>
