<?xml version="1.0" encoding="UTF-8"?>
<svg width="106px" height="58px" viewBox="0 0 106 58" version="1.1" xmlns="http://www.w3.org/2000/svg" xmlns:xlink="http://www.w3.org/1999/xlink">
    <!-- Generator: Sketch 59.1 (86144) - https://sketch.com -->
    <title>bone</title>
    <desc>Created with Sketch.</desc>
    <g id="Page-1" stroke="none" stroke-width="1" fill="none" fill-rule="evenodd">
        <g id="Home-Copy-19" transform="translate(-668.000000, -3065.000000)" fill="#236F8A">
            <path d="M754.727273,3065 C765.371306,3065 774,3073.65583 774,3084.33333 C774,3087.78558 773.091337,3091.10257 771.42126,3094 C773.091337,3096.89743 774,3100.21442 774,3103.66667 C774,3114.34417 765.371306,3123 754.727273,3123 C747.708563,3123 741.410186,3119.20175 738.032087,3113.33333 L703.967913,3113.33333 C700.589814,3119.20175 694.291437,3123 687.272727,3123 C676.628694,3123 668,3114.34417 668,3103.66667 C668,3100.21442 668.908663,3096.89743 670.57874,3094 C668.908663,3091.10257 668,3087.78558 668,3084.33333 C668,3073.65583 676.628694,3065 687.272727,3065 C694.291437,3065 700.589814,3068.79825 703.967913,3074.66667 L738.032087,3074.66667 C741.410186,3068.79825 747.708563,3065 754.727273,3065 Z M755.333333,3074 C751.203133,3074 747.569072,3076.63687 746.21547,3080.49957 L745.076429,3083.75 L697.923571,3083.75 L696.78453,3080.49957 C695.430928,3076.63687 691.796867,3074 687.666667,3074 C682.327914,3074 678,3078.36522 678,3083.75 C678,3086.18637 678.883004,3088.4713 680.460304,3090.2488 L683.34534,3093.5 L680.460304,3096.7512 C678.883004,3098.5287 678,3100.81363 678,3103.25 C678,3108.63478 682.327914,3113 687.666667,3113 C691.796867,3113 695.430928,3110.36313 696.78453,3106.50043 L697.923571,3103.25 L745.076429,3103.25 L746.21547,3106.50043 C747.569072,3110.36313 751.203133,3113 755.333333,3113 C760.672086,3113 765,3108.63478 765,3103.25 C765,3100.81363 764.116996,3098.5287 762.539696,3096.7512 L759.65466,3093.5 L762.539696,3090.2488 C764.116996,3088.4713 765,3086.18637 765,3083.75 C765,3078.36522 760.672086,3074 755.333333,3074 Z" id="bone"></path>
        </g>
    </g>
</svg>