<?xml version="1.0" encoding="UTF-8"?>
<svg width="114px" height="111px" viewBox="0 0 114 111" version="1.1" xmlns="http://www.w3.org/2000/svg" xmlns:xlink="http://www.w3.org/1999/xlink">
    <!-- Generator: Sketch 59.1 (86144) - https://sketch.com -->
    <title>broccoli</title>
    <desc>Created with Sketch.</desc>
    <g id="Page-1" stroke="none" stroke-width="1" fill="none" fill-rule="evenodd">
        <g id="Home-Copy-17" transform="translate(-664.000000, -3113.000000)" fill="#B3A484" fill-rule="nonzero">
            <g id="broccoli" transform="translate(664.000000, 3113.000000)">
                <path d="M113.923077,29.1466325 C113.923077,17.9088759 104.710204,8.76613389 93.3857173,8.76613389 C90.32059,8.76613389 87.349277,9.43361402 84.646686,10.6970398 C82.1380836,4.43724382 75.9712575,0 68.7798955,0 C64.3457169,0 60.1383885,1.72471817 57.0043582,4.68603665 C53.5279325,2.069767 49.2702518,0.626452986 44.8048019,0.626452986 C38.7445105,0.626452986 33.1077081,3.27901588 29.287297,7.82934735 C25.4393247,7.75676086 21.7885213,9.2658235 19.1394626,11.9252243 C18.8092578,11.9062886 18.478523,11.8968208 18.1483182,11.8968208 C8.65029294,11.8962949 0.923076923,19.5646895 0.923076923,28.9898877 C0.923076923,32.4172325 1.94072249,35.7036123 3.83184717,38.4966142 C2.95518792,40.4117405 2.50042755,42.4936052 2.50042755,44.6427966 C2.50042755,52.8597978 9.23649919,59.545119 17.51706,59.545119 C19.8719554,59.545119 22.1600679,59.0022982 24.2223902,57.9787235 C24.4598409,58.2006909 24.707362,58.4110865 24.9591232,58.6156963 C25.6078723,59.6340111 35.2384035,74.8866422 36.8666364,84.9619629 C38.6374457,95.9198933 39.1552789,107.118727 39.1600491,107.230236 C39.2549234,109.338401 41.0045317,111 43.131517,111 L71.7141069,111 C73.8405621,111 75.5907004,109.338401 75.6855747,107.230236 C75.6903449,107.118727 76.2081781,95.9198933 77.9789874,84.9619629 C79.332138,76.5861129 86.2144962,64.6356412 88.8720352,60.2552042 C89.7524046,59.8759661 90.6068028,59.4346613 91.4193292,58.91814 C92.9871394,59.5377551 94.6651946,59.8580825 96.3824715,59.8580825 C103.792733,59.8580825 109.821223,53.8749568 109.821223,46.5211035 C109.821223,45.056224 109.580062,43.6144879 109.113112,42.2458644 C112.19785,38.5981301 113.923077,33.9636404 113.923077,29.1466325 Z M41.5896779,59.3384053 C43.1739189,59.8870119 44.8482638,60.1715719 46.5395696,60.1715719 C46.9492779,60.1715719 47.3563361,60.1494804 47.7618043,60.1168691 L46.8888552,69.7024939 L40.4464167,60.023243 C40.8365142,59.8107434 41.2207814,59.5866721 41.5896779,59.3384053 Z M69.5749311,57.0756003 C70.9826741,58.3542797 72.5791056,59.3936341 74.3048629,60.1647341 L67.9572986,69.7024939 L66.9428332,58.5667793 C67.8671946,58.1570338 68.7523342,57.6636561 69.5749311,57.0756003 Z" id="Shape"></path>
            </g>
        </g>
    </g>
</svg>