<svg width="44" height="44" viewBox="0 0 44 44" xmlns="http://www.w3.org/2000/svg">
    <path d="M7.803 4.533a4.835 4.835 0 011.122-.127L39.548 6.6c2.744.048 5.428 2.332 4.103 5.299-.258.578-1.423 2.93-3.276 6.632-.757 1.512-1.533 3.059-2.31 4.603l-.75 1.492-.23.459a5.763 5.763 0 01-3.623 3.411l-.324.103H11.044l-.031-.002H6.685c-1.246.061-2.242 1.06-2.3 2.202l-.005 2.068c.076 1.26 1.078 2.265 2.196 2.332h.375a6.58 6.58 0 016.202-4.4c2.863 0 5.3 1.837 6.202 4.4h5.133c.903-2.563 3.339-4.4 6.202-4.4 3.632 0 6.576 2.955 6.576 6.6 0 3.645-2.944 6.6-6.576 6.6-2.863 0-5.3-1.837-6.202-4.4h-5.133c-.903 2.563-3.339 4.4-6.202 4.4-2.865 0-5.301-1.838-6.203-4.403h-.498C2.987 39.398.212 36.616 0 33l.003-2.309c.173-3.502 2.957-6.303 6.551-6.49L4.406 9.111 4.384 8.8c0-1.423-.721-3.113-1.55-3.944C2.62 4.64 1.663 4.4 0 4.4V0c2.722 0 4.688.493 5.934 1.744.735.737 1.38 1.708 1.87 2.789z" fill="#236F8A" fill-rule="evenodd"/>
</svg>
