<?xml version="1.0" encoding="UTF-8"?>
<svg width="66px" height="90px" viewBox="0 0 66 90" version="1.1" xmlns="http://www.w3.org/2000/svg" xmlns:xlink="http://www.w3.org/1999/xlink">
    <!-- Generator: Sketch 59.1 (86144) - https://sketch.com -->
    <title>checklist</title>
    <desc>Created with Sketch.</desc>
    <g id="Page-1" stroke="none" stroke-width="1" fill="none" fill-rule="evenodd">
        <g id="Home-Copy-15" transform="translate(-912.000000, -3368.000000)" fill="#236F8A" fill-rule="nonzero">
            <g id="checklist" transform="translate(912.000000, 3368.000000)">
                <g id="Group-2" transform="translate(0.654867, 0.000000)">
                    <path d="M60.4402985,3.11015119 L57.238806,3.11015119 L57.238806,1.45788337 C57.238806,0.652548596 56.5874478,0 55.7835821,0 C54.9797164,0 54.3283582,0.652548596 54.3283582,1.45788337 L54.3283582,3.11015119 L47.9253731,3.11015119 L47.9253731,1.45788337 C47.9253731,0.652548596 47.2740149,0 46.4701493,0 C45.6662836,0 45.0149254,0.652548596 45.0149254,1.45788337 L45.0149254,3.11015119 L38.6119403,3.11015119 L38.6119403,1.45788337 C38.6119403,0.652548596 37.9605821,0 37.1567164,0 C36.3528507,0 35.7014925,0.652548596 35.7014925,1.45788337 L35.7014925,3.11015119 L29.2985075,3.11015119 L29.2985075,1.45788337 C29.2985075,0.652548596 28.6471493,0 27.8432836,0 C27.0394179,0 26.3880597,0.652548596 26.3880597,1.45788337 L26.3880597,3.11015119 L19.9850746,3.11015119 L19.9850746,1.45788337 C19.9850746,0.652548596 19.3337164,0 18.5298507,0 C17.7259851,0 17.0746269,0.652548596 17.0746269,1.45788337 L17.0746269,3.11015119 L10.6716418,3.11015119 L10.6716418,1.45788337 C10.6716418,0.652548596 10.0202836,0 9.21641791,0 C8.41255224,0 7.76119403,0.652548596 7.76119403,1.45788337 L7.76119403,3.11015119 L4.55970149,3.11015119 C2.04546269,3.11015119 0,5.15935205 0,7.67818575 L0,85.4319654 C0,87.9507991 2.04546269,90 4.55970149,90 L60.4402985,90 C62.9545373,90 65,87.9507991 65,85.4319654 L65,7.67818575 C65,5.15935205 62.9545373,3.11015119 60.4402985,3.11015119 Z M62.0895522,85.4319654 C62.0895522,86.3430454 61.3497164,87.0842333 60.4402985,87.0842333 L4.55970149,87.0842333 C3.65028358,87.0842333 2.91044776,86.3430454 2.91044776,85.4319654 L2.91044776,7.67818575 C2.91044776,6.76710583 3.65028358,6.02591793 4.55970149,6.02591793 L7.76119403,6.02591793 L7.76119403,7.67818575 C7.76119403,8.48352052 8.41255224,9.13606911 9.21641791,9.13606911 C10.0202836,9.13606911 10.6716418,8.48352052 10.6716418,7.67818575 L10.6716418,6.02591793 L17.0746269,6.02591793 L17.0746269,7.67818575 C17.0746269,8.48352052 17.7259851,9.13606911 18.5298507,9.13606911 C19.3337164,9.13606911 19.9850746,8.48352052 19.9850746,7.67818575 L19.9850746,6.02591793 L26.3880597,6.02591793 L26.3880597,7.67818575 C26.3880597,8.48352052 27.0394179,9.13606911 27.8432836,9.13606911 C28.6471493,9.13606911 29.2985075,8.48352052 29.2985075,7.67818575 L29.2985075,6.02591793 L35.7014925,6.02591793 L35.7014925,7.67818575 C35.7014925,8.48352052 36.3528507,9.13606911 37.1567164,9.13606911 C37.9605821,9.13606911 38.6119403,8.48352052 38.6119403,7.67818575 L38.6119403,6.02591793 L45.0149254,6.02591793 L45.0149254,7.67818575 C45.0149254,8.48352052 45.6662836,9.13606911 46.4701493,9.13606911 C47.2740149,9.13606911 47.9253731,8.48352052 47.9253731,7.67818575 L47.9253731,6.02591793 L54.3283582,6.02591793 L54.3283582,7.67818575 C54.3283582,8.48352052 54.9797164,9.13606911 55.7835821,9.13606911 C56.5874478,9.13606911 57.238806,8.48352052 57.238806,7.67818575 L57.238806,6.02591793 L60.4402985,6.02591793 C61.3497164,6.02591793 62.0895522,6.76710583 62.0895522,7.67818575 L62.0895522,85.4319654 Z" id="Shape"></path>
                    <path d="M26.476378,23 L48.523622,23 C49.3391732,23 50,22.3286 50,21.5 C50,20.6714 49.3391732,20 48.523622,20 L26.476378,20 C25.6608268,20 25,20.6714 25,21.5 C25,22.3286 25.6608268,23 26.476378,23 Z" id="Path"></path>
                    <path d="M55.5377358,26 L27.4622642,26 C26.6545094,26 26,26.6714 26,27.5 C26,28.3286 26.6545094,29 27.4622642,29 L55.5377358,29 C56.3454906,29 57,28.3286 57,27.5 C57,26.6714 56.3454906,26 55.5377358,26 Z" id="Path"></path>
                    <path d="M19.5685746,19.39912 L12.9808516,25.7079476 L9.43104561,22.308439 C8.87472706,21.7760669 7.97322519,21.7760669 7.41709651,22.308439 C6.86096783,22.8411747 6.86096783,23.7044612 7.41709651,24.2370151 L11.973972,28.6007209 C12.2521313,28.866907 12.6166813,29 12.9810415,29 C13.3454017,29 13.7099517,28.866907 13.988111,28.6007209 L21.5829035,21.3278779 C22.1390322,20.7951422 22.1390322,19.9318557 21.5829035,19.3993018 C21.0263951,18.8669297 20.1248932,18.8669297 19.5685746,19.39912 Z" id="Path"></path>
                    <path d="M26.476378,39 L48.523622,39 C49.3391732,39 50,38.3286 50,37.5 C50,36.6714 49.3391732,36 48.523622,36 L26.476378,36 C25.6608268,36 25,36.6714 25,37.5 C25,38.3286 25.6608268,39 26.476378,39 Z" id="Path"></path>
                    <path d="M55.5377358,42 L27.4622642,42 C26.6545094,42 26,42.6714 26,43.5 C26,44.3286 26.6545094,45 27.4622642,45 L55.5377358,45 C56.3454906,45 57,44.3286 57,43.5 C57,42.6714 56.3454906,42 55.5377358,42 Z" id="Path"></path>
                    <path d="M19.5685746,34.39912 L12.9808516,40.7079476 L9.43104561,37.308439 C8.87472706,36.7760669 7.97322519,36.7760669 7.41709651,37.308439 C6.86096783,37.8411747 6.86096783,38.7044612 7.41709651,39.2370151 L11.973972,43.6007209 C12.2521313,43.866907 12.6166813,44 12.9810415,44 C13.3454017,44 13.7099517,43.866907 13.988111,43.6007209 L21.5829035,36.3278779 C22.1390322,35.7951422 22.1390322,34.9318557 21.5829035,34.3993018 C21.0263951,33.8669297 20.1248932,33.8669297 19.5685746,34.39912 Z" id="Path"></path>
                    <path d="M26.476378,54 L48.523622,54 C49.3391732,54 50,53.3286 50,52.5 C50,51.6714 49.3391732,51 48.523622,51 L26.476378,51 C25.6608268,51 25,51.6714 25,52.5 C25,53.3286 25.6608268,54 26.476378,54 Z" id="Path"></path>
                    <path d="M55.5377358,57 L27.4622642,57 C26.6545094,57 26,57.6714 26,58.5 C26,59.3286 26.6545094,60 27.4622642,60 L55.5377358,60 C56.3454906,60 57,59.3286 57,58.5 C57,57.6714 56.3454906,57 55.5377358,57 Z" id="Path"></path>
                    <path d="M19.5685746,50.39912 L12.9808516,56.7079476 L9.43104561,53.308439 C8.87472706,52.7760669 7.97322519,52.7760669 7.41709651,53.308439 C6.86096783,53.8411747 6.86096783,54.7044612 7.41709651,55.2370151 L11.973972,59.6007209 C12.2521313,59.866907 12.6166813,60 12.9810415,60 C13.3454017,60 13.7099517,59.866907 13.988111,59.6007209 L21.5829035,52.3278779 C22.1390322,51.7951422 22.1390322,50.9318557 21.5829035,50.3993018 C21.0263951,49.8669297 20.1248932,49.8669297 19.5685746,50.39912 Z" id="Path"></path>
                    <path d="M26.476378,70 L48.523622,70 C49.3391732,70 50,69.3286 50,68.5 C50,67.6714 49.3391732,67 48.523622,67 L26.476378,67 C25.6608268,67 25,67.6714 25,68.5 C25,69.3286 25.6608268,70 26.476378,70 Z" id="Path"></path>
                    <path d="M55.5377358,73 L27.4622642,73 C26.6545094,73 26,73.6714 26,74.5 C26,75.3286 26.6545094,76 27.4622642,76 L55.5377358,76 C56.3454906,76 57,75.3286 57,74.5 C57,73.6714 56.3454906,73 55.5377358,73 Z" id="Path"></path>
                    <path d="M19.5685746,65.39912 L12.9808516,71.7079476 L9.43104561,68.308439 C8.87472706,67.7760669 7.97322519,67.7760669 7.41709651,68.308439 C6.86096783,68.8411747 6.86096783,69.7044612 7.41709651,70.2370151 L11.973972,74.6007209 C12.2521313,74.866907 12.6166813,75 12.9810415,75 C13.3454017,75 13.7099517,74.866907 13.988111,74.6007209 L21.5829035,67.3278779 C22.1390322,66.7951422 22.1390322,65.9318557 21.5829035,65.3993018 C21.0263951,64.8669297 20.1248932,64.8669297 19.5685746,65.39912 Z" id="Path"></path>
                </g>
            </g>
        </g>
    </g>
</svg>