<?xml version="1.0" encoding="UTF-8"?>
<svg width="96px" height="52px" viewBox="0 0 96 52" version="1.1" xmlns="http://www.w3.org/2000/svg" xmlns:xlink="http://www.w3.org/1999/xlink">
    <!-- Generator: Sketch 59.1 (86144) - https://sketch.com -->
    <title>eye</title>
    <desc>Created with Sketch.</desc>
    <g id="Page-1" stroke="none" stroke-width="1" fill="none" fill-rule="evenodd">
        <g id="Home-Copy-15" transform="translate(-673.000000, -1543.000000)" fill="#236F8A" fill-rule="nonzero">
            <g id="eye" transform="translate(673.000000, 1543.000000)">
                <path d="M94.350665,23.9140338 C94.1568975,23.66849 89.505428,17.8315686 81.5309099,11.971102 C70.8747513,4.13955764 59.2798082,0 47.9996848,0 C36.7199816,0 25.1250386,4.13955764 14.4684596,11.971102 C6.49415164,17.8313584 1.84268217,23.66849 1.64870456,23.9140338 L0,25.9998949 L1.64891472,28.0859662 C1.84289233,28.33151 6.4943618,34.1686416 14.4686698,40.0291082 C25.1252487,47.8604424 36.7201918,52 47.9998949,52 C59.2798082,52 70.8747513,47.8604424 81.5309099,40.0291082 C89.505428,34.1686416 94.1568975,28.33151 94.350665,28.0859662 L96,25.9998949 L94.350665,23.9140338 Z M47.9996848,44.2142848 C37.9595048,44.2142848 29.7910091,36.0434359 29.7910091,25.9998949 C29.7910091,24.4263542 29.9915017,22.8988531 30.3683184,21.4413571 L26.211145,20.7415152 C25.8038551,22.4285778 25.5878107,24.1894297 25.5878107,25.9998949 C25.5878107,32.4874653 28.3581388,38.3393126 32.7761206,42.4368251 C27.088983,40.3354073 22.2529931,37.386569 18.6031458,34.7196436 C14.081345,31.415944 10.6925163,28.074614 8.76051621,25.9998949 C10.693357,23.9245451 14.0817653,20.5836355 18.6031458,17.2801462 C22.2529931,14.6132208 27.0891932,11.6643825 32.7761206,9.56275444 L35.5649427,12.707313 C38.8220011,9.65651518 43.1962697,7.78550493 47.9996848,7.78550493 C58.0398647,7.78550493 66.2081503,15.9563539 66.2081503,25.9998949 C66.2081503,36.0434359 58.0398647,44.2142848 47.9996848,44.2142848 Z M77.3962237,34.7196436 C73.7459561,37.386569 68.9101763,40.3354073 63.2232489,42.4368251 C67.6410206,38.3395229 70.4113486,32.4876755 70.4113486,25.9996847 C70.4113486,19.5116938 67.6410206,13.6600567 63.2232489,9.56254422 C68.9103865,11.6641723 73.7459561,14.6130106 77.3962237,17.279936 C81.9180245,20.5836355 85.3068532,23.9249655 87.2388533,25.9994744 C85.3060125,28.0752447 81.9176042,31.4163645 77.3962237,34.7196436 Z" id="Shape"></path>
                <path d="M36.5219156,22.4935984 C36.1834095,23.6029978 36,24.779848 36,26 C36,32.627251 41.3725875,38 48.0001041,38 C54.6274125,38 60,32.6274591 60,26 C60,19.3725409 54.6274125,14 48.0001041,14 C44.7720132,14 41.8439145,15.2769855 39.686927,17.3504736 L45.6059957,24.0222754 L36.5219156,22.4935984 Z" id="Path"></path>
            </g>
        </g>
    </g>
</svg>