<?xml version="1.0" encoding="UTF-8"?>
<svg width="95px" height="95px" viewBox="0 0 95 95" version="1.1" xmlns="http://www.w3.org/2000/svg" xmlns:xlink="http://www.w3.org/1999/xlink">
    <!-- Generator: Sketch 59.1 (86144) - https://sketch.com -->
    <title>farming</title>
    <desc>Created with Sketch.</desc>
    <g id="Page-1" stroke="none" stroke-width="1" fill="none" fill-rule="evenodd">
        <g id="Home-Copy-15" transform="translate(-455.000000, -2760.000000)" fill="#236F8A" fill-rule="nonzero">
            <path d="M549.184786,2794.68277 C545.561541,2791.06026 541.081591,2788.60466 536.201554,2787.50732 C536.800958,2787.00359 537.382243,2786.47377 537.942509,2785.91351 C542.991422,2780.8646 545.771732,2774.15157 545.771732,2767.01164 C545.771732,2765.47436 544.525811,2764.22844 542.988523,2764.22844 C534.768636,2764.22844 527.404006,2767.95895 522.496427,2773.81454 C521.401264,2768.92872 518.944212,2764.44225 515.317344,2760.81539 C514.794768,2760.29282 514.087369,2760 513.348804,2760 C512.610964,2760 511.90284,2760.29282 511.380988,2760.81539 C507.491745,2764.70463 504.949893,2769.58176 503.986642,2774.87999 C503.567711,2774.39583 503.129211,2773.92254 502.669691,2773.46302 C502.14784,2772.94117 501.439716,2772.64763 500.701151,2772.64763 C499.963311,2772.64763 499.254463,2772.94117 498.732611,2773.46375 C494.751318,2777.44576 492.292818,2782.38159 491.35276,2787.54211 C490.928031,2787.05215 490.484457,2786.57452 490.021314,2786.11137 C488.934123,2785.02419 487.172149,2785.02419 486.085683,2786.11137 C476.327059,2795.86926 475.705911,2811.3559 484.219339,2821.84437 L455.815393,2850.24899 C454.728202,2851.33545 454.728202,2853.09814 455.815393,2854.18461 C456.358989,2854.7282 457.070736,2855 457.783208,2855 C458.495681,2855 459.207428,2854.7282 459.751024,2854.18461 L488.154245,2825.78144 C492.901645,2829.64314 498.781897,2831.74358 504.986132,2831.74431 L504.989031,2831.74431 C512.127526,2831.74431 518.839842,2828.964 523.888756,2823.9151 C524.410608,2823.39325 524.704149,2822.6844 524.704149,2821.94656 C524.704149,2821.208 524.410608,2820.49988 523.888756,2819.97875 C523.430686,2819.51996 522.958121,2819.08073 522.473233,2818.66035 C527.771477,2817.69711 532.64789,2815.15526 536.537133,2811.26675 C537.058985,2810.7449 537.351802,2810.03677 537.351802,2809.29893 C537.351802,2808.56037 537.058985,2807.85297 536.537133,2807.33112 C536.078339,2806.87233 535.606498,2806.43311 535.121611,2806.01273 C540.402459,2805.05238 545.264376,2802.5243 549.147097,2798.65608 C549.418169,2798.39588 549.638507,2798.0777 549.787814,2797.71603 C550.219067,2796.67595 549.980609,2795.47932 549.184786,2794.68277 L549.184786,2794.68277 Z M540,2770 C539.363031,2774.52724 537.287253,2778.70801 533.997095,2781.99758 C531.131098,2784.86297 527.589638,2786.80736 523.731509,2787.68187 C523.726425,2787.68259 523.722067,2787.68404 523.716983,2787.6855 C523.151192,2787.81333 522.578138,2787.91865 522,2788 C523.321147,2778.6993 530.699673,2771.32193 540,2770 Z M513.5,2767 C516.420606,2770.73018 518,2775.24808 518,2780.00037 C518,2784.75192 516.419835,2789.27056 513.5,2793 C510.580165,2789.2713 509,2784.75266 509,2780.00037 C509,2775.24882 510.580165,2770.72944 513.5,2767 Z M500.500242,2780 C506.500435,2787.67224 506.499662,2798.3285 500.499469,2806 C494.500048,2798.3285 494.500048,2787.67224 500.500242,2780 Z M488.5,2792 C491.419836,2795.72944 493,2800.24808 493,2804.99963 C493,2809.75192 491.419836,2814.27056 488.5,2818 C485.579394,2814.27056 484,2809.75192 484,2805.00037 C484,2800.24808 485.579394,2795.72944 488.5,2792 Z M505.001854,2826 C505.001113,2826 505.000371,2826 504.999629,2826 C500.24734,2825.99923 495.728697,2824.41984 492,2821.5 C495.729438,2818.58016 500.248081,2817 505.000371,2817 C509.751919,2817 514.270562,2818.57939 518,2821.5 C514.270562,2824.42061 509.75266,2826 505.001854,2826 L505.001854,2826 Z M516.999629,2814 C512.248081,2814 507.729438,2812.41984 504,2809.5 C507.73018,2806.58016 512.248823,2805 517.001113,2805 C521.75266,2805 526.271303,2806.57939 530,2809.49923 C526.26982,2812.41984 521.751919,2814 516.999629,2814 Z M530.000371,2801 C525.248081,2801 520.729438,2799.41984 517,2796.49923 C519.320886,2794.68243 521.948107,2793.38515 524.745928,2792.66367 C524.788948,2792.65288 524.831969,2792.64286 524.875731,2792.63207 C526.533506,2792.21583 528.251362,2792 530.000371,2792 C534.75266,2792 539.270562,2793.57939 543,2796.49923 C539.270562,2799.41984 534.751919,2801 530.000371,2801 Z" id="farming"></path>
        </g>
    </g>
</svg>