<svg width="85" height="85" viewBox="0 0 85 85" xmlns="http://www.w3.org/2000/svg">
    <path d="M79.217 73.434a5.749 5.749 0 00-2.997.839l-23.4-23.4a1.38 1.38 0 00-.129-.113 13.062 13.062 0 002.935-8.26 13.06 13.06 0 00-2.927-8.251l15.95-15.952a10.136 10.136 0 006.162 2.081c5.618 0 10.189-4.57 10.189-10.189C85 4.571 80.43 0 74.811 0c-5.618 0-10.189 4.57-10.189 10.189 0 2.314.777 4.449 2.08 6.16l-15.95 15.952a13.063 13.063 0 00-8.252-2.927 13.062 13.062 0 00-8.251 2.927l-7.366-7.366c.532-.874.838-1.9.838-2.997a5.79 5.79 0 00-5.783-5.782 5.79 5.79 0 00-5.782 5.782 5.79 5.79 0 005.782 5.783 5.749 5.749 0 002.997-.838l7.366 7.366a13.062 13.062 0 00-2.927 8.251c0 1.772.355 3.462.994 5.006l-17.515 9.487a7.24 7.24 0 00-5.601-2.652C3.253 54.341 0 57.594 0 61.593c0 3.998 3.253 7.251 7.252 7.251 3.998 0 7.251-3.253 7.251-7.251 0-.76-.118-1.492-.335-2.18l17.515-9.488c2.37 3.44 6.333 5.701 10.817 5.701.503 0 .999-.03 1.487-.086l1.826 8.214a5.789 5.789 0 00-3.221 5.182 5.79 5.79 0 005.783 5.783 5.79 5.79 0 005.783-5.783 5.789 5.789 0 00-5.657-5.78l-1.826-8.214a13.114 13.114 0 004.086-2.25c.034.044.07.087.111.128l23.4 23.4a5.749 5.749 0 00-.838 2.997A5.79 5.79 0 0079.217 85 5.79 5.79 0 0085 79.217a5.79 5.79 0 00-5.783-5.783z" fill="#236F8A"/>
</svg>
