<svg width="113" height="97" viewBox="0 0 113 97" xmlns="http://www.w3.org/2000/svg">
    <path d="M112.963 64.706c.353 8.792-1.84 16.445-6.342 22.131C98.918 96.567 89.16 97 56.5 97c-32.66 0-42.418-.433-50.121-10.163C1.877 81.151-.316 73.497.037 64.706c.32-7.979 2.695-16.787 6.87-25.472 5.087-10.585 12.52-20.292 20.93-27.333C37.135 4.115 47.046 0 56.5 0s19.364 4.115 28.664 11.901c8.409 7.04 15.842 16.748 20.93 27.333 4.173 8.686 6.549 17.493 6.87 25.472zM24.5 87a1.5 1.5 0 100-3 1.5 1.5 0 000 3zm74-40a1.5 1.5 0 100-3 1.5 1.5 0 000 3zm-61-22a1.5 1.5 0 100-3 1.5 1.5 0 000 3zm43-2a1.5 1.5 0 100-3 1.5 1.5 0 000 3zm-44-5a1.5 1.5 0 100-3 1.5 1.5 0 000 3zm-19 56a1.5 1.5 0 100-3 1.5 1.5 0 000 3zm47-55a1.5 1.5 0 100-3 1.5 1.5 0 000 3zm-34 9a1.5 1.5 0 100-3 1.5 1.5 0 000 3zm-2 48a1.5 1.5 0 100-3 1.5 1.5 0 000 3zm58 9a1.5 1.5 0 100-3 1.5 1.5 0 000 3zm12-5a1.5 1.5 0 100-3 1.5 1.5 0 000 3zm-8-7a1.5 1.5 0 100-3 1.5 1.5 0 000 3zm-14 5a1.5 1.5 0 100-3 1.5 1.5 0 000 3zm-6 10a1.5 1.5 0 100-3 1.5 1.5 0 000 3zm2-73a1.5 1.5 0 100-3 1.5 1.5 0 000 3zm0 10a1.5 1.5 0 100-3 1.5 1.5 0 000 3z" fill="#236F8A"/>
</svg>
