<svg width="365" height="110" viewBox="0 0 365 110" xmlns="http://www.w3.org/2000/svg" xmlns:xlink="http://www.w3.org/1999/xlink">
    <defs>
        <path id="a" d="M.065.134h249.827v34.773H.065z"/>
    </defs>
    <g fill="none" fill-rule="evenodd">
        <path d="M345.397 82.983c2.868 0 4.878-1.406 4.878-3.768v-.036c0-2.092-1.483-3.047-4.37-3.696-2.636-.578-3.261-1.01-3.261-1.984v-.036c0-.83.82-1.496 2.226-1.496 1.072 0 2.087.324 3.141.955.187.108.404.164.626.162.619.005 1.125-.45 1.13-1.017v-.01a.988.988 0 00-.525-.884 7.98 7.98 0 00-4.334-1.172c-2.713 0-4.664 1.497-4.664 3.66v.037c0 2.326 1.639 3.12 4.548 3.768 2.537.54 3.083 1.028 3.083 1.93v.035c0 .938-.936 1.587-2.42 1.587-1.486 0-2.693-.469-3.826-1.298a1.173 1.173 0 00-.702-.199c-.62-.005-1.127.45-1.133 1.017v.011c-.001.335.174.65.47.848 1.474 1.03 3.279 1.586 5.133 1.585v.001zm-13.798 0c2.87 0 4.88-1.406 4.88-3.768v-.036c0-2.092-1.484-3.047-4.373-3.696-2.635-.578-3.259-1.01-3.259-1.984v-.036c0-.83.818-1.496 2.224-1.496 1.074 0 2.09.324 3.143.955.187.108.403.164.624.162.62.006 1.127-.449 1.133-1.015v-.012a.986.986 0 00-.527-.884 7.972 7.972 0 00-4.333-1.172c-2.714 0-4.665 1.497-4.665 3.66v.037c0 2.326 1.64 3.12 4.547 3.768 2.537.54 3.084 1.028 3.084 1.93v.035c0 .938-.937 1.587-2.42 1.587-1.482 0-2.694-.469-3.825-1.298-.52-.342-1.244-.233-1.617.242a1.01 1.01 0 00-.218.587c-.002.335.173.65.468.848 1.475 1.03 3.279 1.586 5.134 1.585v.001zm-17.957-.18h8.042c.594 0 1.075-.442 1.074-.985v-.007c-.002-.543-.48-.984-1.074-.991h-6.85v-3.392h5.875c.59.002 1.07-.434 1.074-.973.006-.55-.474-1-1.074-1.01h-5.875v-3.282h6.752c.594-.001 1.075-.442 1.074-.986v-.006c-.003-.543-.48-.984-1.074-.992h-7.944c-.661-.006-1.203.48-1.21 1.085v10.42c-.013.605.513 1.105 1.174 1.117h.036v.002zm-17.935-.992c0 .597.529 1.08 1.181 1.08s1.181-.483 1.181-1.08v-8.007l7.025 8.402c.333.397.685.667 1.25.667h.098c.648 0 1.173-.48 1.173-1.073V71.17c0-.597-.53-1.08-1.182-1.08-.652 0-1.181.483-1.181 1.08v7.753l-6.833-8.168c-.33-.378-.662-.649-1.249-.649h-.253c-.668 0-1.21.496-1.21 1.107V81.81zm-13.387-.126c-.014.605.511 1.105 1.173 1.118h7.413c.61 0 1.105-.452 1.105-1.01s-.495-1.01-1.105-1.01h-6.187V71.19c.001-.606-.534-1.098-1.197-1.1-.663-.001-1.2.49-1.202 1.095v10.5zm-13.388 0c-.014.605.512 1.105 1.173 1.118h7.414c.61 0 1.104-.452 1.104-1.01s-.494-1.01-1.104-1.01h-6.188V71.19c.002-.606-.534-1.098-1.197-1.1-.662-.001-1.2.49-1.202 1.095v10.5zm-13.173 1.118h8.04c.594 0 1.075-.442 1.074-.985v-.007c-.002-.543-.48-.984-1.074-.991h-6.85v-3.392h5.874c.59.002 1.07-.434 1.074-.973.006-.55-.473-1-1.074-1.01h-5.874v-3.282h6.753c.594-.002 1.074-.444 1.072-.987v-.005c-.002-.542-.478-.983-1.072-.992h-7.943c-.662-.006-1.205.478-1.212 1.084v10.421c-.013.605.513 1.105 1.174 1.117h.038v.002zm-20.767-.74c.234.577.664.92 1.248.92h.237c.584 0 1.034-.342 1.248-.92l3.045-8.24 3.045 8.24c.214.577.643.92 1.229.92h.234c.586 0 1.034-.36 1.249-.92l4.042-10.458c.067-.142.106-.295.115-.45-.01-.594-.54-1.069-1.19-1.064-.538 0-1.013.322-1.172.793l-3.14 8.69-3.084-8.636c-.133-.515-.634-.88-1.212-.883h-.175c-.606 0-1.015.36-1.21.883l-3.083 8.637-3.143-8.672c-.152-.485-.64-.817-1.19-.812-.665-.012-1.216.47-1.23 1.079v.003c.002.149.035.296.097.433l4.04 10.457zm-23.75-.379c-.014.605.51 1.106 1.172 1.118h7.414c.61 0 1.105-.452 1.105-1.01s-.495-1.01-1.105-1.01h-6.185V71.19c0-.606-.536-1.099-1.199-1.1-.663-.001-1.202.49-1.203 1.096v10.498zm-13.037-3.895l2.4-5.102 2.401 5.102h-4.801zm-4.295 4.075c-.01.559.477 1.019 1.088 1.028h.025c.498.01.946-.274 1.113-.703l1.151-2.434h6.636l1.112 2.362c.168.462.64.774 1.172.775.624 0 1.131-.462 1.132-1.033v-.03a.907.907 0 00-.137-.47l-5.074-10.457c-.273-.559-.742-.901-1.425-.901h-.117c-.64-.008-1.218.353-1.443.9l-5.075 10.459a1.072 1.072 0 00-.158.504zm-12.08-5.427V72.2h3.494c1.776 0 2.83.739 2.83 2.091v.036c0 1.28-1.093 2.11-2.81 2.11h-3.514zm-2.4 5.355c0 .606.537 1.097 1.2 1.097.663 0 1.2-.491 1.2-1.097v-3.39h3.025l3.318 3.912c.255.365.698.583 1.172.578.628.007 1.143-.453 1.151-1.027v-.001a1.238 1.238 0 00-.39-.847l-2.615-3.048c1.834-.523 3.103-1.749 3.103-3.768v-.036c.029-1.008-.378-1.986-1.132-2.722-.879-.794-2.225-1.262-3.943-1.262h-4.88c-.66-.007-1.203.478-1.21 1.083v10.528zM168.95 83c3.572 0 5.875-1.893 5.875-5.661V71.19c.009-.606-.522-1.105-1.184-1.113-.663-.008-1.208.477-1.217 1.083v6.286c0 2.326-1.308 3.498-3.434 3.498-2.147 0-3.456-1.244-3.456-3.587V71.19c.01-.606-.52-1.105-1.184-1.113-.663-.008-1.207.477-1.216 1.083v6.286c0 3.66 2.264 5.554 5.816 5.554zm-16.199-1.208c.01.611.558 1.1 1.226 1.092.656-.008 1.185-.493 1.194-1.092v-9.556h3.338c.62-.016 1.11-.489 1.092-1.057-.016-.545-.496-.984-1.092-.999h-9.075c-.62 0-1.124.46-1.124 1.028 0 .568.503 1.028 1.124 1.028h3.318v9.556zm-16.394-4.003l2.4-5.103 2.402 5.103h-4.802zm-4.294 4.075c-.01.558.477 1.018 1.087 1.028h.026c.498.01.946-.274 1.112-.704l1.152-2.434h6.636l1.112 2.362c.168.462.64.774 1.172.776.624 0 1.131-.462 1.132-1.033v-.031a.907.907 0 00-.137-.469l-5.074-10.457c-.273-.56-.742-.902-1.425-.902h-.117c-.641-.007-1.218.354-1.444.903l-5.074 10.457a1.072 1.072 0 00-.158.504zm-15.788-.054c-.001.597.527 1.08 1.179 1.082.652 0 1.182-.482 1.183-1.079v-8.009l7.026 8.402c.332.397.683.667 1.25.667h.097c.648 0 1.172-.481 1.171-1.074V71.171c.001-.596-.527-1.08-1.18-1.082-.652 0-1.181.482-1.182 1.079v7.756l-6.831-8.168c-.332-.378-.664-.649-1.25-.649h-.253c-.668 0-1.21.495-1.21 1.107V81.81z" fill="#3B464F"/>
        <g transform="translate(114.275 26)">
            <mask id="b" fill="#fff">
                <use xlink:href="#a"/>
            </mask>
            <path d="M243.617 9.595a.577.577 0 101.155 0V5.793l1.477 2.357c.095.192.29.315.505.319a.569.569 0 00.507-.319l1.477-2.378v3.822a.577.577 0 101.154 0v-5.5a.6.6 0 00-.566-.615h-.143a.563.563 0 00-.526.318l-1.903 3.143-1.862-3.143a.625.625 0 00-.546-.318h-.14a.603.603 0 00-.59.616v5.499zm-4.453-.022a.597.597 0 101.194 0V4.689h1.499a.57.57 0 00.527-.573.555.555 0 00-.527-.573h-4.19a.555.555 0 00-.527.573.57.57 0 00.527.573h1.496v4.884zm-26.414 7.804V6.089h8.538c4.342 0 6.919 1.969 6.919 5.571v.096c0 3.41-2.672 5.62-6.87 5.62h-8.587zm-5.87 14.264a2.93 2.93 0 002.933 2.928 2.93 2.93 0 002.937-2.923v-9.035h7.395l8.11 10.423c.667.912 1.525 1.537 2.862 1.537a2.775 2.775 0 002.814-2.735v-.002c0-.913-.382-1.538-.955-2.258l-6.392-8.117c4.484-1.392 7.585-4.659 7.585-10.037v-.097c0-2.93-1.003-5.427-2.768-7.252-2.146-2.113-5.439-3.362-9.636-3.362h-11.927a2.923 2.923 0 00-2.958 2.978v27.952zm-32.582 2.69h19.655a2.625 2.625 0 002.623-2.626v-.016a2.656 2.656 0 00-2.623-2.641h-16.747v-9.03h14.36a2.614 2.614 0 002.624-2.593 2.666 2.666 0 00-2.623-2.69h-14.361V5.993h16.508a2.625 2.625 0 002.623-2.626v-.016A2.656 2.656 0 00193.714.71h-19.416a2.923 2.923 0 00-2.96 2.978v27.665a2.923 2.923 0 002.868 2.977l.09.001h.002zm-47.948-2.642a2.82 2.82 0 002.862 2.882 2.861 2.861 0 002.91-2.882V11.565l8.11 12.248c.622.96 1.383 1.536 2.435 1.536 1.095 0 1.859-.576 2.48-1.536l8.158-12.344v20.172a2.962 2.962 0 002.909 2.93 2.913 2.913 0 002.958-2.866V3.496A2.952 2.952 0 00156.245.52h-.651c-1.193 0-2.052.528-2.67 1.537L142.76 18.049 132.647 2.104c-.573-.913-1.431-1.585-2.72-1.585h-.618a2.953 2.953 0 00-2.96 2.946V31.69zm-28.1-2.257c-6.632 0-11.355-5.38-11.355-11.911v-.096c0-6.532 4.628-11.863 11.259-11.863s11.354 5.427 11.354 11.959v.096c0 6.532-4.628 11.815-11.259 11.815h.002zm-.096 5.475c10.257 0 17.509-7.925 17.509-17.386v-.096c0-9.462-7.156-17.29-17.412-17.29-10.257 0-17.51 7.924-17.51 17.386v.096c-.001 9.461 7.155 17.29 17.412 17.29h.001zM54.12 29.432c-6.632 0-11.355-5.38-11.355-11.911v-.096c0-6.532 4.628-11.863 11.26-11.863S65.38 10.989 65.38 17.52v.096c-.002 6.532-4.63 11.815-11.26 11.815zm-.096 5.475c10.257 0 17.509-7.925 17.509-17.386v-.096c0-9.462-7.156-17.29-17.413-17.29C43.862.134 36.61 8.058 36.61 17.52v.096c-.001 9.461 7.155 17.29 17.413 17.29zM5.84 29.096v-9.222h9.302c4.628 0 6.87 1.681 6.87 4.515v.096c0 3.026-2.433 4.61-6.44 4.61H5.839zm0-14.217V5.946h8.444c3.769 0 5.868 1.633 5.868 4.275v.096c0 3.073-2.529 4.562-6.297 4.562H5.839zM.066 31.353a2.922 2.922 0 002.958 2.978h12.5c7.441 0 12.355-3.218 12.355-9.222v-.096c0-4.563-2.72-6.82-6.631-8.164 2.48-1.297 4.77-3.459 4.77-7.493V9.26c0-2.257-.763-4.082-2.242-5.571C21.87 1.767 18.862.71 15.046.71H3.024A2.923 2.923 0 00.066 3.689v27.664z" fill="#236F8A" mask="url(#b)"/>
        </g>
        <path d="M101.775 0c.828 0 1.5.589 1.5 1.315v107.37c0 .726-.672 1.315-1.5 1.315-.829 0-1.5-.589-1.5-1.315V1.315c0-.726.671-1.315 1.5-1.315" fill="#BBC2CA"/>
        <path d="M46.064 30.71c-.525-2.005.636-4.067 2.593-4.604 1.957-.537 3.968.653 4.492 2.659.524 2.005-.637 4.067-2.594 4.604-1.956.537-3.967-.653-4.491-2.659zm2.854-6.334c-.189-.723.23-1.465.933-1.658a1.317 1.317 0 011.618.957c.189.722-.23 1.464-.934 1.657a1.317 1.317 0 01-1.617-.956zm-4.71 8.06a.827.827 0 01.57-1.01.803.803 0 01.984.585c.114.44-.14.89-.569 1.008a.803.803 0 01-.985-.584zM40.58 29.59c-.283-1.083.344-2.196 1.4-2.486 1.057-.29 2.143.352 2.426 1.435.283 1.083-.344 2.196-1.4 2.486-1.057.29-2.143-.352-2.426-1.435zm3.192-3.152a1.131 1.131 0 01.778-1.382 1.098 1.098 0 011.348.798 1.131 1.131 0 01-.778 1.382 1.098 1.098 0 01-1.349-.796v-.001l.001-.001zm3.371-4.736a.905.905 0 01.622-1.104.878.878 0 011.078.638.904.904 0 01-.622 1.104.878.878 0 01-1.079-.636l.001-.002zm-2.187 2.276c-.178-.681.217-1.382.882-1.565a1.244 1.244 0 011.527.904c.178.682-.216 1.383-.881 1.565a1.244 1.244 0 01-1.529-.903h.001zm-.44-3.46c-.177-.682.218-1.382.883-1.563a1.243 1.243 0 011.525.904c.177.682-.218 1.381-.882 1.563a1.24 1.24 0 01-1.525-.895l-.002-.009h.001zm-2.5-1.69a1.133 1.133 0 01.781-1.384 1.1 1.1 0 011.35.802 1.134 1.134 0 01-.78 1.383 1.103 1.103 0 01-1.352-.8v-.001zm-1.873 5.045c-.283-1.083.345-2.196 1.402-2.486 1.056-.29 2.142.354 2.424 1.437.283 1.083-.344 2.196-1.4 2.486-1.058.289-2.143-.354-2.428-1.436l.002-.001zM36.62 26.88c-.283-1.082.344-2.196 1.4-2.486 1.057-.29 2.143.353 2.426 1.436.283 1.083-.344 2.196-1.4 2.486-1.056.29-2.143-.351-2.427-1.434l.001-.002zm3.627-6.382a.905.905 0 01.623-1.105.878.878 0 011.078.638.905.905 0 01-.622 1.105.878.878 0 01-1.08-.637l.001-.001zm-1.594-2.497c-.199-.762.242-1.545.986-1.75.744-.204 1.508.249 1.707 1.01.199.763-.242 1.546-.986 1.75-.743.205-1.508-.246-1.708-1.008l.001-.002zm-.893 3.682a1.134 1.134 0 01.78-1.385 1.1 1.1 0 011.35.8 1.134 1.134 0 01-.78 1.385 1.1 1.1 0 01-1.351-.8zm-1.378 1.66a.83.83 0 01.571-1.013.805.805 0 01.988.585.83.83 0 01-.57 1.013.805.805 0 01-.989-.585zm-.385-6.32a1.136 1.136 0 01.78-1.388 1.103 1.103 0 011.354.8 1.136 1.136 0 01-.78 1.387 1.1 1.1 0 01-1.354-.799zm-2.037 3.424c-.221-.844.266-1.711 1.089-1.938.823-.227 1.669.273 1.89 1.116.222.844-.266 1.711-1.089 1.938-.821.228-1.667-.27-1.89-1.111a.05.05 0 010-.005zm-2.033 3.878c-.283-1.083.344-2.197 1.4-2.487 1.057-.29 2.143.353 2.426 1.436.283 1.083-.344 2.196-1.4 2.486-1.057.29-2.143-.351-2.427-1.434v-.001zm.126-7.335c-.22-.844.268-1.71 1.091-1.937.823-.226 1.67.275 1.89 1.119.22.843-.268 1.71-1.091 1.936-.823.227-1.67-.273-1.89-1.117v-.001zm-.748 3.698a1.055 1.055 0 01.726-1.289c.548-.15 1.11.183 1.257.745a1.056 1.056 0 01-.725 1.288 1.025 1.025 0 01-1.259-.743zm-2.917 3.217c-.22-.844.268-1.711 1.09-1.938.824-.226 1.67.275 1.89 1.119.221.844-.267 1.711-1.09 1.937-.823.226-1.67-.274-1.89-1.118zm-2.741-4.911c-.41-1.564.497-3.173 2.023-3.592 1.526-.419 3.094.51 3.503 2.074.409 1.564-.496 3.172-2.022 3.591-1.526.42-3.095-.508-3.504-2.072v-.001zM23.954 16.9a.603.603 0 01.417-.736.586.586 0 01.717.427.603.603 0 01-.415.735.585.585 0 01-.718-.425V16.9zm-.139 2.957a.754.754 0 01.519-.921.732.732 0 01.898.531.754.754 0 01-.519.921.732.732 0 01-.898-.531zm-.554 3.336c-.24-.921.293-1.868 1.191-2.115.899-.246 1.823.3 2.063 1.222.24.92-.292 1.868-1.19 2.114-.9.247-1.823-.3-2.064-1.22zm-2.935-3.912c-.241-.92.291-1.868 1.19-2.115.898-.248 1.822.298 2.063 1.22.242.92-.29 1.867-1.19 2.114-.897.249-1.82-.295-2.062-1.214l-.001-.005zm-2.338 4.441c-.283-1.083.344-2.196 1.4-2.486 1.058-.29 2.143.353 2.426 1.436.283 1.083-.344 2.196-1.4 2.486-1.056.29-2.142-.352-2.426-1.435zm-.327-3.694a1.134 1.134 0 01.778-1.386 1.1 1.1 0 011.352.797 1.134 1.134 0 01-.778 1.386h-.001a1.097 1.097 0 01-1.35-.793v-.004zm-3.214 2.374c-.22-.844.268-1.71 1.091-1.937.823-.226 1.67.275 1.89 1.119.22.843-.268 1.71-1.091 1.936-.823.227-1.669-.274-1.89-1.117zm.575 3.193a1.133 1.133 0 01.781-1.383 1.1 1.1 0 011.35.8 1.133 1.133 0 01-.78 1.384 1.103 1.103 0 01-1.351-.801zm-4.52.533c-.283-1.084.345-2.198 1.403-2.489 1.057-.29 2.144.353 2.428 1.437.283 1.084-.344 2.199-1.402 2.49-1.057.29-2.145-.353-2.428-1.438zm-.187 2.96a.679.679 0 01.467-.829.659.659 0 01.809.479.678.678 0 01-.467.828.659.659 0 01-.809-.478zM8.274 28a1.131 1.131 0 01.78-1.38c.587-.16 1.19.197 1.346.8a1.131 1.131 0 01-.779 1.38 1.1 1.1 0 01-1.347-.8zM6.95 30.558a1.136 1.136 0 01.782-1.387 1.102 1.102 0 011.353.801 1.136 1.136 0 01-.781 1.388 1.103 1.103 0 01-1.354-.801zM5.334 32.68a.903.903 0 01.62-1.104.876.876 0 011.077.635.903.903 0 01-.62 1.104H6.41a.88.88 0 01-1.074-.635zm-1.037 1.818a.678.678 0 01.467-.828.659.659 0 01.809.478.679.679 0 01-.467.829.659.659 0 01-.809-.478z" fill="#3B464F"/>
        <path d="M22.805 42.624a3.608 3.608 0 01-1.334-4.946 3.66 3.66 0 014.98-1.326 3.608 3.608 0 011.335 4.947 3.66 3.66 0 01-4.98 1.325zm-3.064-5.191a1.299 1.299 0 01-.48-1.781 1.318 1.318 0 011.792-.477c.628.36.843 1.157.48 1.78a1.317 1.317 0 01-1.792.477zm4.265 7.742a.795.795 0 01-.29-1.09.806.806 0 011.097-.29.795.795 0 01.292 1.088.804.804 0 01-1.092.296l-.007-.004zm-4.339 1.375a1.876 1.876 0 01-.694-2.572 1.903 1.903 0 012.59-.69 1.876 1.876 0 01.694 2.573 1.903 1.903 0 01-2.59.69zm-.733-3.811a1.083 1.083 0 01-.4-1.485c.302-.52.97-.697 1.494-.397.523.3.702.964.4 1.484-.302.52-.97.697-1.494.398zm-2.145-5.29a.791.791 0 01-.293-1.084.803.803 0 011.092-.29.79.79 0 01.293 1.084.801.801 0 01-1.092.29zm.582 3.035a1.228 1.228 0 01-.453-1.685 1.246 1.246 0 011.696-.45 1.23 1.23 0 01.454 1.683 1.246 1.246 0 01-1.695.453l-.002-.001zm-2.888-1.279a1.156 1.156 0 01-.426-1.585 1.172 1.172 0 011.596-.423c.557.32.748 1.029.427 1.583a1.169 1.169 0 01-1.59.43l-.007-.005zm-2.58 1.228a1.01 1.01 0 01-.375-1.385 1.024 1.024 0 011.394-.373c.489.28.657.9.375 1.385v.002c-.282.484-.906.65-1.394.37zm2.88 3.873a1.877 1.877 0 01-.692-2.574 1.903 1.903 0 012.592-.686c.905.52 1.215 1.67.692 2.57a1.901 1.901 0 01-2.586.694l-.007-.004zm.768 4.338a1.95 1.95 0 01-.725-2.673 1.978 1.978 0 012.691-.72 1.95 1.95 0 01.725 2.673l-.002.003a1.98 1.98 0 01-2.69.717zm-3.11-5.902a.794.794 0 01-.293-1.088.805.805 0 011.095-.291c.384.22.515.706.294 1.088a.805.805 0 01-1.096.291zm-3.017.184a1.371 1.371 0 01-.507-1.88 1.39 1.39 0 011.892-.503c.663.38.89 1.221.507 1.88a1.39 1.39 0 01-1.892.503zm2.624 2.356a1.083 1.083 0 01-.4-1.484c.302-.52.97-.697 1.494-.398.523.3.702.965.4 1.485-.302.519-.97.696-1.494.396v.001zm.766 2.055a.866.866 0 01-.32-1.187.878.878 0 011.195-.318c.418.24.562.771.32 1.187a.878.878 0 01-1.195.318zm-5.43-2.78a1.082 1.082 0 01-.4-1.485c.302-.52.97-.697 1.493-.397.523.3.703.964.4 1.484-.301.52-.97.697-1.493.397zm1.824 3.271a1.513 1.513 0 01-.56-2.074 1.534 1.534 0 012.088-.556c.731.42.982 1.348.56 2.074a1.535 1.535 0 01-2.088.556zm1.966 3.564a1.948 1.948 0 01-.72-2.671 1.976 1.976 0 012.69-.716 1.948 1.948 0 01.72 2.671 1.976 1.976 0 01-2.69.716zm-5.76-3.562a1.515 1.515 0 01-.561-2.077 1.537 1.537 0 012.091-.557c.733.42.984 1.35.561 2.077a1.537 1.537 0 01-2.092.557zm2.663 2.387a1.01 1.01 0 01-.377-1.383c.28-.486.904-.653 1.393-.375.488.28.657.898.377 1.384l-.002.003a1.027 1.027 0 01-1.391.371zm1.095 3.85a1.44 1.44 0 01-.533-1.976 1.461 1.461 0 011.989-.53c.696.4.935 1.284.533 1.976a1.461 1.461 0 01-1.989.53H9.17h.002zm-5.618-.175a2.742 2.742 0 01-1.014-3.76 2.78 2.78 0 013.785-1.007 2.742 2.742 0 011.014 3.76 2.78 2.78 0 01-3.784 1.009h-.001v-.002zm-1.966.584a.577.577 0 01-.216-.79.585.585 0 01.796-.215.577.577 0 01.216.79l-.002.003a.587.587 0 01-.794.212zm2.258 1.572a.722.722 0 01-.264-.991.733.733 0 01.998-.262c.347.2.466.642.266.988a.73.73 0 01-.993.269l-.007-.004zm2.19 1.91a1.588 1.588 0 01-.588-2.175 1.61 1.61 0 012.19-.584 1.588 1.588 0 01.589 2.176 1.61 1.61 0 01-2.191.584zm-4.522.583a1.59 1.59 0 01-.59-2.178 1.612 1.612 0 012.192-.587 1.59 1.59 0 01.591 2.178l-.001.003a1.614 1.614 0 01-2.192.584zm2.332 3.872a1.876 1.876 0 01-.691-2.574 1.904 1.904 0 012.59-.687 1.877 1.877 0 01.694 2.572 1.901 1.901 0 01-2.593.69v-.001zM.822 61.068a1.082 1.082 0 01-.4-1.484c.301-.52.97-.697 1.493-.397.523.3.703.964.4 1.484-.301.52-.97.697-1.493.397zm.329 3.72a1.444 1.444 0 01-.539-1.978 1.464 1.464 0 011.992-.535c.698.398.94 1.284.538 1.978l-.003.005a1.464 1.464 0 01-1.988.529zm2.946 1.05a1.01 1.01 0 01-.375-1.386 1.025 1.025 0 011.394-.372c.489.28.656.9.375 1.385v.001c-.283.484-.906.65-1.394.37v.001zm-1.964 3.95a1.95 1.95 0 01-.718-2.673 1.977 1.977 0 012.69-.713 1.948 1.948 0 01.72 2.67 1.975 1.975 0 01-2.692.716zm2.72 1.606a.578.578 0 01-.213-.791.586.586 0 01.798-.212c.278.16.374.514.213.791a.586.586 0 01-.797.212zm-2.172 1.128a1.01 1.01 0 01-.375-1.385 1.024 1.024 0 011.394-.372c.488.28.656.9.375 1.385l-.001.001c-.282.484-.906.65-1.393.37zm1.458 2.461a1.01 1.01 0 01-.374-1.384 1.025 1.025 0 011.394-.373c.488.28.656.9.374 1.385v.001c-.282.485-.906.65-1.394.371zm.946 2.336a.863.863 0 01-.315-1.185.876.876 0 011.193-.313c.415.24.557.768.317 1.182a.874.874 0 01-1.189.32l-.006-.004zm1.216 1.603a.577.577 0 01-.213-.791.586.586 0 01.796-.212c.28.16.375.514.214.791a.586.586 0 01-.797.212z" fill="#236F8A"/>
        <path d="M18.943 61.116c1.72-.483 3.487.585 3.948 2.386.461 1.802-.559 3.653-2.278 4.136-1.72.484-3.487-.585-3.948-2.386-.461-1.802.559-3.653 2.278-4.136zm-3.902 3.961c.648-.182 1.315.221 1.488.9.174.68-.21 1.378-.859 1.56-.648.181-1.315-.222-1.488-.9-.174-.68.21-1.378.859-1.56zm8.456 1.23c.382-.108.774.13.877.53.102.4-.124.812-.506.92-.383.107-.775-.13-.878-.531-.101-.4.125-.812.507-.919zm-1.498 2.236c.918-.258 1.86.312 2.106 1.273.246.96-.298 1.948-1.215 2.206-.917.257-1.86-.313-2.106-1.273-.246-.961.298-1.949 1.215-2.207zm-3.09.19c.535-.15 1.085.182 1.228.743.144.56-.174 1.136-.709 1.286-.535.15-1.084-.182-1.228-.742-.143-.56.174-1.137.708-1.287h.002zm-4.76-.368c.418-.117.849.144.96.583.112.44-.137.89-.556 1.007-.418.117-.848-.143-.96-.582-.113-.439.135-.89.554-1.008h.001zm2.227.313c.574-.161 1.163.195 1.316.796.154.6-.187 1.217-.76 1.378-.573.16-1.162-.196-1.315-.796-.154-.6.186-1.218.759-1.379zm-2.263 1.998c.573-.16 1.162.196 1.316.796.154.6-.187 1.217-.76 1.378-.573.161-1.162-.195-1.315-.796-.154-.6.186-1.217.76-1.378zm-.107 2.941c.527-.148 1.068.179 1.21.73.142.552-.17 1.12-.697 1.268-.526.148-1.068-.179-1.21-.73v-.001c-.142-.55.169-1.117.694-1.266h.003zm3.826-2.027c.917-.257 1.86.313 2.105 1.274.246.96-.298 1.947-1.215 2.205-.917.257-1.86-.313-2.105-1.273-.246-.96.298-1.949 1.215-2.206zm3.792 1.306c.955-.267 1.937.327 2.192 1.328.255 1.001-.313 2.03-1.268 2.297-.955.267-1.937-.327-2.192-1.328-.254-1 .313-2.028 1.267-2.297zm-5.38 1.764c.381-.107.773.13.875.53.102.4-.125.811-.506.918-.382.107-.773-.13-.876-.53-.102-.4.125-.81.506-.918zm-1.646 1.462c.65-.183 1.318.221 1.491.902.175.68-.211 1.38-.86 1.562-.65.182-1.318-.222-1.492-.902-.174-.68.212-1.38.861-1.562zm3.368-.26c.497-.14 1.007.17 1.14.69.133.52-.162 1.055-.658 1.195-.497.139-1.007-.17-1.14-.69-.134-.52.161-1.055.658-1.195zm2.053.621c.42-.118.853.142.966.582.113.44-.136.893-.556 1.012-.42.118-.853-.142-.966-.582v-.001c-.113-.44.136-.892.556-1.01zm-4.86 2.813c.535-.15 1.085.182 1.229.743.143.56-.174 1.136-.71 1.286-.534.15-1.084-.182-1.228-.742-.143-.56.174-1.137.71-1.287zm3.082-.68c.726-.203 1.472.248 1.666 1.008.195.761-.236 1.542-.962 1.746-.726.204-1.472-.247-1.667-1.008-.194-.76.236-1.542.963-1.746zm3.474-.767c.917-.257 1.86.313 2.105 1.273.246.96-.298 1.948-1.215 2.206-.917.257-1.86-.313-2.105-1.273-.247-.96.297-1.949 1.214-2.207l.001.001zm-5.168 3.809c.726-.204 1.472.247 1.667 1.008.194.76-.237 1.542-.963 1.746-.726.204-1.472-.248-1.667-1.008-.194-.76.236-1.542.962-1.746zm3.395-.192c.497-.14 1.007.17 1.14.69.133.52-.162 1.055-.659 1.194-.496.14-1.007-.17-1.14-.69-.133-.52.161-1.054.658-1.194zm3.373.17c.726-.204 1.472.248 1.666 1.008.195.76-.236 1.543-.962 1.746-.726.204-1.472-.248-1.667-1.008-.194-.76.236-1.542.961-1.746h.002zm-3.62 2.454c1.337-.375 2.712.456 3.07 1.857.358 1.401-.435 2.841-1.772 3.216-1.338.375-2.712-.456-3.07-1.857-.359-1.4.434-2.84 1.771-3.216h.001zm1.234 5.523a.571.571 0 01.701.424c.082.32-.1.65-.405.735a.57.57 0 01-.702-.424.604.604 0 01.405-.735zm2.023-1.206a.642.642 0 01.79.478.68.68 0 01-.456.827.643.643 0 01-.79-.478.68.68 0 01.456-.827zm1.839-2.5c.802-.226 1.627.273 1.842 1.114.215.84-.261 1.704-1.064 1.93-.802.225-1.627-.274-1.842-1.115-.215-.84.26-1.703 1.062-1.93h.002zm-1.579 4.055c.803-.226 1.627.273 1.843 1.114.215.84-.262 1.704-1.064 1.93-.802.225-1.627-.274-1.842-1.114-.215-.84.26-1.703 1.062-1.93h.001zm4.128-.623c.917-.258 1.86.313 2.105 1.273.246.96-.299 1.948-1.216 2.206-.917.257-1.859-.313-2.105-1.274-.245-.96.3-1.946 1.215-2.204l.001-.001zm-1.971 3.54c.497-.14 1.007.17 1.14.69.133.52-.161 1.055-.658 1.194-.497.14-1.007-.17-1.14-.69-.134-.52.161-1.055.658-1.194zm2.759.708c.688-.195 1.397.233 1.582.954.186.722-.222 1.464-.91 1.658-.69.195-1.398-.233-1.583-.954v-.002c-.186-.72.22-1.46.908-1.655l.003-.001zm2.599-1.214c.498-.14 1.01.17 1.143.691.133.522-.162 1.057-.66 1.197-.498.14-1.01-.17-1.143-.691-.133-.522.163-1.057.66-1.197zm1.604 1.949c.917-.258 1.86.312 2.105 1.273.246.96-.298 1.948-1.215 2.205-.917.258-1.86-.312-2.105-1.273-.246-.96.298-1.948 1.215-2.205zm3.522 1.038a.5.5 0 01.613.372.528.528 0 01-.354.643.5.5 0 01-.614-.372.528.528 0 01.354-.643zm-.433 1.341c.497-.14 1.007.17 1.14.69.134.52-.161 1.055-.658 1.195-.497.14-1.007-.17-1.14-.69-.134-.52.161-1.055.658-1.194zm2.639.031c.496-.139 1.007.17 1.14.69.133.52-.162 1.055-.659 1.194-.496.14-1.007-.17-1.14-.69-.133-.52.161-1.054.658-1.194zm2.404.713a.713.713 0 01.877.53c.103.4-.124.812-.506.92-.382.107-.775-.13-.877-.531-.103-.4.124-.812.506-.92zm2.09.375a.57.57 0 01.702.424c.082.32-.1.65-.405.735a.57.57 0 01-.702-.424.604.604 0 01.405-.735z" fill="#3B464F"/>
        <path d="M44.201 83.68c0 1.786-1.55 3.235-3.463 3.235s-3.463-1.449-3.463-3.235c0-1.786 1.55-3.235 3.463-3.235s3.463 1.448 3.463 3.235zm-2.034 4.67c0 .646-.56 1.17-1.253 1.17-.691-.001-1.252-.525-1.252-1.171s.56-1.17 1.253-1.17c.691 0 1.252.524 1.252 1.17zm3.257-7.356c0 .38-.33.689-.737.689s-.737-.309-.737-.689c0-.38.33-.688.737-.688s.737.308.737.688zm3.642 2.41c0 .95-.825 1.72-1.842 1.72-1.018 0-1.843-.77-1.843-1.72s.825-1.72 1.842-1.72c1.018 0 1.842.769 1.843 1.719zm-2.477 2.613c0 .57-.495 1.033-1.106 1.033-.61 0-1.105-.463-1.105-1.033 0-.57.495-1.032 1.105-1.032s1.106.461 1.106 1.031v.001zm-2.555 4.257c0 .417-.361.755-.808.756-.446 0-.808-.338-.808-.755s.362-.755.808-.755c.446 0 .808.337.808.754zm1.79-1.983c0 .608-.528 1.101-1.18 1.101-.65 0-1.178-.493-1.178-1.101s.528-1.101 1.179-1.101c.65 0 1.179.493 1.179 1.1v.001zm.938 2.883c-.001.608-.53 1.101-1.182 1.1-.652 0-1.18-.494-1.179-1.103.001-.608.528-1.1 1.18-1.101.65-.002 1.178.49 1.18 1.097v.007zm2.286.98c0 .531-.462.963-1.032.963-.57 0-1.031-.431-1.031-.964 0-.532.461-.963 1.031-.963.57 0 1.032.431 1.032.963zm1.212-4.208c0 .95-.825 1.72-1.842 1.72-1.017 0-1.842-.77-1.842-1.72s.825-1.72 1.842-1.72c1.017 0 1.841.77 1.842 1.72zm2.838-2.857c0 .95-.824 1.72-1.842 1.72-1.017 0-1.842-.77-1.842-1.72s.825-1.72 1.842-1.72c1.017 0 1.84.77 1.84 1.72h.002zm-2.723 5.343c0 .419-.363.758-.811.758-.448 0-.81-.34-.81-.758s.362-.756.81-.756c.447 0 .81.339.81.756zm1.933 2.058c0 .646-.561 1.17-1.253 1.17-.692 0-1.253-.524-1.253-1.17 0-.646.561-1.17 1.253-1.17.692 0 1.252.525 1.252 1.17zm.29-3.216c0 .534-.463.966-1.034.966-.572 0-1.035-.432-1.035-.966 0-.533.463-.966 1.035-.966.57 0 1.033.433 1.033.966zm1.037-1.554c0 .418-.363.757-.811.757-.448 0-.81-.339-.81-.757s.362-.757.81-.757c.447 0 .81.34.81.757zm1.16 5.316c0 .532-.461.964-1.03.964-.57 0-1.033-.432-1.033-.964s.462-.963 1.032-.963c.57 0 1.03.431 1.03.963h.002zm1.345-3.057c0 .723-.627 1.308-1.4 1.308-.773 0-1.4-.585-1.4-1.308 0-.722.627-1.307 1.4-1.307.773 0 1.399.586 1.399 1.307h.001zm1.415-3.325c0 .95-.825 1.72-1.842 1.721-1.018 0-1.843-.77-1.843-1.72s.825-1.721 1.842-1.721c1.018 0 1.842.77 1.842 1.72zm.753 5.958c0 .722-.627 1.307-1.4 1.307-.774 0-1.4-.585-1.4-1.307 0-.723.626-1.308 1.4-1.308.772 0 1.398.586 1.398 1.308h.002zm.355-3.224c0 .495-.428.895-.957.895-.53 0-.958-.4-.959-.894 0-.494.429-.895.958-.895.53 0 .958.4.958.894zM60.83 86.4c0 .722-.627 1.308-1.4 1.308-.774 0-1.4-.586-1.4-1.308 0-.722.626-1.307 1.4-1.307.773 0 1.4.585 1.4 1.307zm3.27 4.228c0 1.369-1.187 2.478-2.652 2.478-1.466 0-2.653-1.109-2.653-2.477 0-1.369 1.187-2.478 2.652-2.478 1.466 0 2.653 1.109 2.653 2.478zm1.55.79c0 .304-.264.55-.59.55-.325 0-.59-.246-.59-.55 0-.304.265-.55.59-.55.326 0 .59.246.59.55zm-.277-2.425c0 .342-.297.619-.663.619-.367 0-.663-.277-.663-.62 0-.341.296-.619.663-.619.366 0 .663.277.663.62zm.147-2.535c0 .798-.692 1.445-1.547 1.445s-1.548-.647-1.548-1.445.693-1.446 1.548-1.446c.855 0 1.547.647 1.547 1.446zm3.293 2.867c0 .798-.692 1.446-1.547 1.446-.854 0-1.548-.647-1.548-1.445s.693-1.446 1.547-1.446h.002c.854 0 1.546.647 1.546 1.445zm1.456-3.665c0 .95-.825 1.721-1.842 1.721-1.017 0-1.842-.77-1.842-1.72s.825-1.721 1.842-1.721c1.017 0 1.842.77 1.842 1.72zm.808 2.523c0 .494-.428.895-.958.895-.529 0-.958-.4-.958-.895 0-.494.43-.895.958-.895.53 0 .958.4.958.895zm2.671-2.162c0 .722-.627 1.308-1.4 1.308-.773 0-1.4-.586-1.4-1.308 0-.722.627-1.308 1.4-1.308.773 0 1.4.586 1.4 1.308zm-.97-2.879c0 .532-.462.964-1.032.964-.57 0-1.032-.431-1.032-.964 0-.532.462-.963 1.032-.964.57 0 1.032.432 1.032.964zm3.993-.496c0 .912-.792 1.652-1.768 1.652-.977 0-1.769-.74-1.769-1.652 0-.913.792-1.652 1.769-1.652.976 0 1.769.738 1.769 1.65v.002zm-.295-3.03c0 .304-.264.55-.59.55-.325 0-.589-.246-.589-.55 0-.304.264-.55.59-.55.325 0 .59.246.59.55zm2.128.94c0 .493-.429.894-.958.894-.529 0-.958-.4-.958-.895 0-.494.429-.895.958-.895.53 0 .958.401.958.895zm.841-2.438c0 .494-.429.895-.958.895-.529 0-.958-.4-.958-.895 0-.494.429-.895.958-.895h.001c.529 0 .957.401.957.895zm1.269-1.846c0 .417-.361.756-.808.757-.447.001-.81-.337-.811-.754-.001-.418.36-.757.808-.758h.002c.446.002.806.339.809.755zm.56-1.721c0 .304-.263.55-.589.55-.325.001-.59-.246-.59-.55 0-.304.264-.55.59-.551.326 0 .59.246.59.55z" fill="#236F8A"/>
        <path d="M69.448 67.313a3.531 3.531 0 010 5.043 3.652 3.652 0 01-5.114 0 3.531 3.531 0 010-5.043 3.651 3.651 0 015.112 0h.002zm2.646 4.531c.5.493.5 1.293 0 1.786-.5.493-1.31.493-1.811 0a1.25 1.25 0 010-1.786c.5-.492 1.31-.491 1.81.001l.001-.001zm-4.724-7.62c.294.29.294.76 0 1.05a.76.76 0 01-1.065 0 .736.736 0 010-1.05.76.76 0 011.064.001l.001-.002zm4.674-1.398a1.913 1.913 0 010 2.731 1.978 1.978 0 01-2.77 0 1.913 1.913 0 010-2.731 1.978 1.978 0 012.769.001l.001-.001zm.696 3.771c.441.435.441 1.14 0 1.576a1.141 1.141 0 01-1.598 0 1.104 1.104 0 010-1.575v-.001a1.141 1.141 0 011.596 0h.002zm2.193 4.966a.807.807 0 010 1.152.834.834 0 01-1.168 0 .807.807 0 010-1.152.835.835 0 011.167 0h.001zm-.562-2.718a1.18 1.18 0 010 1.682 1.217 1.217 0 01-1.705 0 1.177 1.177 0 010-1.681 1.217 1.217 0 011.705 0zm3.014 1.04c.47.466.47 1.22-.002 1.684a1.219 1.219 0 01-1.706-.002 1.179 1.179 0 010-1.681 1.215 1.215 0 011.702-.007l.007.007h-.001zm2.518-1.406a1.03 1.03 0 010 1.47 1.065 1.065 0 01-1.492 0 1.03 1.03 0 010-1.47 1.065 1.065 0 011.492-.002v.002zm-3.02-3.447a1.84 1.84 0 010 2.627 1.902 1.902 0 01-2.663 0 1.84 1.84 0 010-2.627 1.902 1.902 0 012.664 0zm-.905-4.308a1.84 1.84 0 010 2.626 1.902 1.902 0 01-2.663 0 1.84 1.84 0 010-2.626 1.902 1.902 0 012.663-.001h.001-.001zm3.127 5.706a.81.81 0 010 1.155.837.837 0 01-1.172 0 .81.81 0 010-1.155.837.837 0 011.172 0zm3.057-.215c.53.522.53 1.369 0 1.89a1.37 1.37 0 01-1.918 0 1.324 1.324 0 010-1.89 1.37 1.37 0 011.918 0zm-2.773-2.465a1.033 1.033 0 010 1.475 1.068 1.068 0 01-1.495 0 1.032 1.032 0 010-1.475 1.068 1.068 0 011.495 0zm-.88-1.925a.81.81 0 010 1.155.837.837 0 01-1.171 0 .81.81 0 010-1.155.837.837 0 011.172 0zm5.488 2.494a1.03 1.03 0 010 1.47 1.065 1.065 0 01-1.491 0 1.03 1.03 0 010-1.47 1.065 1.065 0 011.49 0h.001zm-1.714-2.977a1.398 1.398 0 010 1.997 1.446 1.446 0 01-2.024 0 1.398 1.398 0 010-1.997 1.445 1.445 0 012.024 0zM80.2 57.9a1.84 1.84 0 010 2.627 1.902 1.902 0 01-2.664 0 1.84 1.84 0 010-2.627 1.902 1.902 0 012.663 0zm5.9 3.276a1.398 1.398 0 010 1.996 1.445 1.445 0 01-2.024 0 1.398 1.398 0 010-1.996 1.445 1.445 0 012.024 0zm-2.983-2.399a.957.957 0 010 1.366.99.99 0 01-1.385 0 .957.957 0 010-1.366.99.99 0 011.385 0zm-1.172-3.616a1.398 1.398 0 010 1.996 1.445 1.445 0 01-2.024 0 1.398 1.398 0 010-1.996 1.445 1.445 0 012.024 0zm5.997.154a2.649 2.649 0 010 3.782 2.739 2.739 0 01-3.835 0 2.649 2.649 0 010-3.782 2.738 2.738 0 013.834 0zm1.584-1.021a.589.589 0 010 .84.609.609 0 01-.852 0 .589.589 0 010-.84.609.609 0 01.852 0zm-2.397-1.55a.662.662 0 010 .947.685.685 0 01-.959 0 .662.662 0 010-.946.685.685 0 01.96 0zm-2.068-1.618a1.544 1.544 0 010 2.206c-.618.61-1.62.61-2.237 0a1.545 1.545 0 010-2.206 1.598 1.598 0 012.236 0h.001zm4.563-.755c.618.61.618 1.597 0 2.207-.618.61-1.62.61-2.238 0a1.545 1.545 0 010-2.207 1.598 1.598 0 012.237 0zm-2.493-3.766a1.84 1.84 0 010 2.627 1.902 1.902 0 01-2.663 0 1.839 1.839 0 010-2.627 1.902 1.902 0 012.661 0h.002zm2.857 1.245a.957.957 0 010 1.365.99.99 0 01-1.385 0 .957.957 0 010-1.365.99.99 0 011.383 0h.002zm-.383-3.555a1.398 1.398 0 010 1.996 1.445 1.445 0 01-2.024 0 1.398 1.398 0 010-1.996 1.445 1.445 0 012.024 0zm-3.036-1.19a1.03 1.03 0 010 1.47 1.065 1.065 0 01-1.492 0 1.03 1.03 0 010-1.47 1.065 1.065 0 011.492 0zm2.066-3.781a1.84 1.84 0 010 2.627 1.902 1.902 0 01-2.663 0 1.84 1.84 0 010-2.627 1.902 1.902 0 012.663 0zm-3.044-1.918a.588.588 0 010 .84.609.609 0 01-.852 0 .588.588 0 010-.84.609.609 0 01.852 0zm2.122-.85a.957.957 0 010 1.366.989.989 0 01-1.385 0 .956.956 0 010-1.366.989.989 0 011.385 0h.001zm-1.492-2.46a.956.956 0 010 1.366.989.989 0 01-1.385 0 .957.957 0 010-1.366.99.99 0 011.385 0zm-1.044-2.208a.808.808 0 01.002 1.154.836.836 0 01-1.17.001.808.808 0 01-.002-1.154l.002-.001a.839.839 0 011.168 0zm-1.353-1.714a.588.588 0 010 .84.609.609 0 01-.852 0 .588.588 0 010-.84.609.609 0 01.852 0z" fill="#3B464F"/>
        <path d="M64.436 45.548c1.755 0 3.178 1.444 3.178 3.226S66.191 52 64.436 52s-3.177-1.444-3.177-3.226c0-1.781 1.421-3.226 3.176-3.227l.001.001zm4.59.86c.625 0 1.13.514 1.13 1.147 0 .634-.505 1.147-1.13 1.147-.623 0-1.13-.513-1.13-1.147 0-.633.505-1.146 1.128-1.147h.003zm-7.909-1.434c.39 0 .707.321.707.717a.712.712 0 01-.707.717.712.712 0 01-.706-.717c0-.396.315-.716.705-.717h.001zm1.766-4.015c.975 0 1.765.803 1.765 1.793 0 .99-.79 1.792-1.765 1.792-.975 0-1.766-.803-1.766-1.792 0-.99.79-1.792 1.764-1.793h.002zm2.895 1.864c.546 0 .99.45.99 1.004a.996.996 0 01-.99 1.004.996.996 0 01-.988-1.004.996.996 0 01.987-1.004h.001zm4.66 1.578c.39 0 .706.32.706.717a.712.712 0 01-.706.716.712.712 0 01-.706-.716c0-.396.315-.717.705-.718h.001zm-2.189-1.29c.585 0 1.06.48 1.06 1.075 0 .594-.475 1.075-1.06 1.075a1.067 1.067 0 01-1.06-1.076c0-.594.475-1.075 1.06-1.075zm2.542-1.435c.585 0 1.06.482 1.06 1.075 0 .594-.475 1.075-1.06 1.075a1.067 1.067 0 01-1.059-1.075c0-.593.474-1.075 1.058-1.075h.001zm.495-2.438c.546 0 .989.45.989 1.004a.996.996 0 01-.989 1.004.996.996 0 01-.989-1.004.996.996 0 01.988-1.004zm-4.096-.143c.936 0 1.695.77 1.695 1.72s-.758 1.721-1.695 1.721c-.936 0-1.695-.77-1.695-1.72s.759-1.721 1.695-1.721zm-3.39-2.008c.935 0 1.694.77 1.694 1.72s-.758 1.72-1.694 1.721c-.936 0-1.695-.77-1.696-1.72 0-.95.76-1.72 1.695-1.72v-.001zm5.578 1.29c.43 0 .777.353.777.789a.783.783 0 01-.777.789.783.783 0 01-.777-.789c0-.436.348-.789.777-.789zm1.694-2.15c.663 0 1.2.546 1.2 1.22a1.21 1.21 0 01-1.2 1.218 1.21 1.21 0 01-1.2-1.219 1.21 1.21 0 011.2-1.218zm-3.107.43c.507 0 .918.418.918.933a.925.925 0 01-.918.932.925.925 0 01-.918-.932c0-.515.411-.932.918-.932zm-1.977-.716c.43 0 .777.353.777.788a.783.783 0 01-.777.789.783.783 0 01-.777-.789c0-.435.348-.788.777-.788zm5.014-2.294c.546 0 .989.449.989 1.003a.996.996 0 01-.989 1.004.996.996 0 01-.989-1.003.996.996 0 01.989-1.004zm-3.037-.574c.741 0 1.342.61 1.342 1.362 0 .752-.6 1.362-1.342 1.362-.74 0-1.341-.61-1.341-1.362 0-.752.6-1.362 1.341-1.362zm-3.46-.573c.936 0 1.695.77 1.695 1.72s-.758 1.72-1.695 1.72c-.936.001-1.695-.77-1.695-1.72s.76-1.72 1.695-1.72zm5.579-2.008c.74 0 1.342.61 1.342 1.362 0 .753-.601 1.362-1.342 1.362-.741 0-1.342-.61-1.342-1.362 0-.752.6-1.362 1.342-1.362zm-3.32.574c.469 0 .848.385.848.86s-.38.86-.847.86a.854.854 0 01-.848-.86c0-.475.38-.86.848-.86zm-3.247-1.577a1.28 1.28 0 011.272 1.29c0 .713-.57 1.29-1.272 1.29a1.28 1.28 0 01-1.27-1.29c0-.712.568-1.29 1.27-1.29zm3.743-3.872c1.365 0 2.472 1.124 2.472 2.51 0 1.385-1.106 2.509-2.471 2.509-1.366 0-2.472-1.123-2.472-2.51 0-1.385 1.106-2.508 2.47-2.509h.001zm.07-1.72a.57.57 0 01.566.573.57.57 0 01-.565.574.57.57 0 01-.565-.574c0-.316.252-.573.564-.573zm-2.33.86a.64.64 0 01.636.645.64.64 0 01-.636.646.64.64 0 01-.635-.646.64.64 0 01.635-.645zm-2.26.287c.82 0 1.484.674 1.484 1.505 0 .832-.664 1.506-1.483 1.506a1.494 1.494 0 01-1.483-1.506c0-.831.664-1.505 1.483-1.505zm2.119-3.585c.819 0 1.483.674 1.483 1.506 0 .831-.664 1.505-1.483 1.505a1.494 1.494 0 01-1.483-1.505c0-.832.664-1.506 1.483-1.506zm-3.884-.574c.936 0 1.695.77 1.695 1.721 0 .95-.76 1.72-1.695 1.72-.936 0-1.695-.77-1.695-1.72s.759-1.72 1.695-1.72zm2.33-1.29c.507 0 .918.417.918.932a.925.925 0 01-.918.932.925.925 0 01-.918-.932c0-.515.411-.932.918-.932zm-2.542-1.864c.74 0 1.341.61 1.341 1.362 0 .752-.6 1.362-1.341 1.362s-1.342-.61-1.342-1.362c0-.752.6-1.361 1.342-1.361zm-2.613 1.434c.546 0 .989.45.989 1.004a.996.996 0 01-.99 1.004.996.996 0 01-.988-1.004.996.996 0 01.989-1.004zm-1.271-3.728c.936 0 1.695.77 1.695 1.721 0 .95-.76 1.72-1.695 1.72-.936 0-1.695-.77-1.695-1.72s.758-1.72 1.694-1.72zm-3.108 1.004a.57.57 0 01.565.574.57.57 0 01-.565.573.57.57 0 01-.564-.573c0-.317.252-.574.564-.574zm.636-2.007c.507 0 .918.417.918.932 0 .514-.41.932-.918.932a.925.925 0 01-.918-.932c0-.515.411-.932.918-.932zm-2.542-.574c.507 0 .918.417.918.932 0 .515-.41.932-.918.932a.925.925 0 01-.918-.931c0-.515.41-.933.918-.933zm-2.19-.573c.39 0 .707.32.707.717a.712.712 0 01-.706.717.711.711 0 01-.706-.717c0-.396.316-.717.706-.717zM47.84 13a.57.57 0 01.565.573.57.57 0 01-.565.574.57.57 0 01-.565-.574.57.57 0 01.565-.573z" fill="#236F8A"/>
    </g>
</svg>
