<?xml version="1.0" encoding="UTF-8"?>
<svg width="90px" height="101px" viewBox="0 0 90 101" version="1.1" xmlns="http://www.w3.org/2000/svg" xmlns:xlink="http://www.w3.org/1999/xlink">
    <!-- Generator: Sketch 59.1 (86144) - https://sketch.com -->
    <title>muscle</title>
    <desc>Created with Sketch.</desc>
    <g id="Page-1" stroke="none" stroke-width="1" fill="none" fill-rule="evenodd">
        <g id="Home-Copy-18" transform="translate(-1118.000000, -3052.000000)" fill="#236F8A" fill-rule="nonzero">
            <path d="M1207.37246,3107.88179 C1206.97223,3106.79509 1207.0923,3107.26082 1206.34329,3106.36961 C1205.03395,3101.04535 1205.30268,3094.95063 1201.54047,3088.90765 C1195.49692,3079.21359 1179.50468,3063.5743 1173.44397,3061.16516 C1173.1295,3061.05017 1172.86078,3060.97542 1172.6092,3060.91792 C1172.40908,3059.40574 1171.55715,3058.0143 1169.55026,3057.0541 C1163.3409,3054.12173 1156.15383,3050.79838 1152.20293,3052.43131 C1149.95018,3053.36851 1148.16628,3051.51135 1147.44014,3053.69625 C1146.98273,3055.07044 1144.51271,3057.69232 1145.03873,3060.69368 C1145.18739,3061.55039 1146.82835,3065.42572 1148.6923,3066.52967 C1149.00105,3067.41513 1146.3252,3065.90295 1147.89755,3069.2148 C1149.4699,3072.52665 1163.4381,3066.68491 1166.27405,3070.20375 C1169.39017,3074.87829 1169.96765,3090.40834 1175.68529,3100.33239 C1174.70186,3100.20589 1168.86414,3091.47779 1158.74392,3093.93293 C1148.62941,3096.38231 1145.9364,3105.07592 1145.9364,3105.07592 C1136.22213,3095.96833 1120.18986,3102.27005 1118,3111.0959 L1118.06289,3153 L1127.93726,3152.82751 L1131.67088,3146.16931 C1138.17184,3143.65667 1143.28341,3132.87591 1148.61797,3125.98772 C1155.85079,3127.05143 1166.89156,3125.05052 1171.21981,3124.51004 C1175.17642,3124.01556 1190.24812,3119.70901 1194.54779,3118.12208 C1204.57082,3114.4365 1209.9111,3114.85623 1207.37246,3107.88179 Z" id="muscle"></path>
        </g>
    </g>
</svg>