<svg width="20" height="20" viewBox="0 0 20 20" xmlns="http://www.w3.org/2000/svg">
    <path d="M8.98 4.255c.585.65.4 1.385-.119 2.083a5.453 5.453 0 01-.435.509c-.082.086-.146.15-.28.285l-.767.767c-.1.1.586 1.47 1.917 2.803 1.33 1.331 2.7 2.017 2.801 1.916l.766-.766c.422-.423.646-.626.953-.828.638-.418 1.335-.532 1.922-.007 1.917 1.371 3.002 2.213 3.534 2.765 1.037 1.077.9 2.735.006 3.681-.31.328-.704.722-1.169 1.17-2.812 2.813-8.745 1.101-13.293-3.45C.268 10.63-1.444 4.695 1.362 1.888c.504-.511.67-.677 1.16-1.16.914-.9 2.649-1.041 3.703 0 .555.548 1.44 1.686 2.754 3.526z" fill="#236F8A" fill-rule="evenodd"/>
</svg>
