<?xml version="1.0" encoding="UTF-8"?>
<svg width="91px" height="91px" viewBox="0 0 91 91" version="1.1" xmlns="http://www.w3.org/2000/svg" xmlns:xlink="http://www.w3.org/1999/xlink">
    <!-- Generator: Sketch 59.1 (86144) - https://sketch.com -->
    <title>icon</title>
    <desc>Created with Sketch.</desc>
    <g id="Page-1" stroke="none" stroke-width="1" fill="none" fill-rule="evenodd">
        <g id="Home-Copy-9" transform="translate(-675.000000, -3026.000000)" fill="#236F8A">
            <path d="M694.078435,3048.75 L711.4,3048.75 L711.4,3057.85 L679.55,3057.85 L679.55,3026 L688.65,3026 L688.65,3040.88009 C696.499237,3031.38043 707.740737,3026 720.5,3026 C745.628956,3026 766,3046.37104 766,3071.5 C766,3096.62896 745.628956,3117 720.5,3117 C695.371044,3117 675,3096.62896 675,3071.5 L684.1,3071.5 C684.1,3091.60316 700.396835,3107.9 720.5,3107.9 C740.603165,3107.9 756.9,3091.60316 756.9,3071.5 C756.9,3051.39684 740.603165,3035.1 720.5,3035.1 C709.609012,3035.1 700.268607,3040.00807 694.078435,3048.75 Z" id="icon"></path>
        </g>
    </g>
</svg>