<svg width="44" height="122" viewBox="0 0 44 122" xmlns="http://www.w3.org/2000/svg">
    <g fill="none" fill-rule="evenodd">
        <path stroke="#236F8A" stroke-width="4" d="M37.394 37.553c.897 0 1.606-.687 1.606-1.497V28.05c0-.81-.709-1.497-1.605-1.497H7.605C6.71 26.553 6 27.241 6 28.05v8.006c0 .81.709 1.497 1.605 1.497h29.79z"/>
        <path d="M36.413 122H7.586C3.403 122 0 118.635 0 114.5V58.299c0-3.303 1.445-6.439 3.965-8.605l5.175-4.45A1.02 1.02 0 019.802 45h24.396c.243 0 .478.087.662.245l5.175 4.45A11.344 11.344 0 0144 58.298v56.2c0 4.136-3.404 7.501-7.587 7.501zm-7.398-95h-14.03A.993.993 0 0114 26V8.12C14 3.643 17.59 0 22 0c4.411 0 8 3.643 8 8.12V26c0 .552-.44 1-.985 1z" fill="#236F8A" fill-rule="nonzero"/>
    </g>
</svg>
