<svg width="63" height="57" viewBox="0 0 63 57" xmlns="http://www.w3.org/2000/svg">
    <path d="M58.632 7.526l4.299.496-1.932 3.824-2.83 5.594c-.113.395-.31.741-.6 1.192-.122.189-.537.788-.557.816-.11.163-.19.291-.25.394v7.166C56.763 45.347 38.789 57 21.815 57c-3.474 0-6.113-.164-9.135-.815-4.973-1.072-8.674-3.202-10.367-6.924L.568 45.428l4.238-.385c3.833-.348 7.156-1.069 9.709-2.034C7.508 41.896 3.58 38.858 3.58 33.15v-3h3.04c.667 0 1.27-.054 1.808-.152C3.169 26.895.535 21.914.535 15.007l-.002-.61c-.02-3.481.17-5.342 1.135-7.716a13.73 13.73 0 012.716-4.222L6.677 0l2.23 2.516c7.347 8.29 14.61 13.32 22.025 13.928.032-7.65 5.887-13.439 13.675-13.439 3.63 0 6.924 1.36 9.512 3.814 1.417.287 2.92.523 4.513.707z" fill="#ffffff" fill-rule="evenodd"/>
</svg>
