<svg width="96" height="66" viewBox="0 0 96 66" xmlns="http://www.w3.org/2000/svg">
    <path d="M81.097 48.23h6.176V33.04L75.16 24.925 67.12 8.77H8.727v39.462h6.176C16.805 43.41 21.504 40 27 40c5.408 0 10.045 3.302 12.004 8h17.992c1.96-4.698 6.596-8 12.004-8 5.496 0 10.195 3.41 12.097 8.23zm.276 8.77c-1.687 5.223-6.589 9-12.373 9-5.784 0-10.686-3.777-12.373-9H39.373c-1.687 5.223-6.589 9-12.373 9-5.784 0-10.686-3.777-12.373-9h-5.9C3.907 57 0 53.074 0 48.23V8.77C0 3.925 3.907 0 8.727 0h58.394a8.723 8.723 0 017.806 4.848L81.93 18.92 96 28.346V48.23c0 4.844-3.907 8.77-8.727 8.77h-5.9zM25.5 57a4.5 4.5 0 100-9 4.5 4.5 0 000 9zm45 0a4.5 4.5 0 100-9 4.5 4.5 0 000 9z" fill="#236F8A" fill-rule="evenodd"/>
</svg>
